<mxfile host="65bd71144e">
    <diagram id="I8S7UcTLu5IGd2NsQs8v" name="ENG_MNT_F_PNT">
        <mxGraphModel dx="781" dy="551" grid="1" gridSize="10" guides="1" tooltips="1" connect="1" arrows="0" fold="1" page="1" pageScale="1" pageWidth="827" pageHeight="1169" math="0" shadow="0">
            <root>
                <mxCell id="0"/>
                <mxCell id="1" parent="0"/>
                <object label="Add" block="Add" signs="[:-, :+]" type="block" name="" id="10">
                    <mxCell style="rounded=0;whiteSpace=wrap;html=1;fontSize=11;points=[[0,0.24,0,0,0],[0,0.76,0,0,0],[1,0.5,0,0,0]];metaEdit=1;snapToPoint=0;allowArrows=0;resizable=0;container=1;collapsible=0;movable=1;connectable=0;" vertex="1" parent="1">
                        <mxGeometry x="210" y="110" width="40" height="50" as="geometry"/>
                    </mxCell>
                </object>
                <object label="&lt;p style=&quot;line-height: 100%;&quot;&gt;&lt;br&gt;&lt;/p&gt;" type="outport" name="out" id="11">
                    <mxCell style="whiteSpace=wrap;html=1;aspect=fixed;snapToPoint=1;resizable=0;metaEdit=1;points=[[1,0.5,0,0,0]];editable=1;movable=0;rotatable=1;deletable=1;locked=0;connectable=1;noLabel=0;overflow=visible;fillColor=#000000;" vertex="1" parent="10">
                        <mxGeometry x="35" y="20.285714285714285" width="10" height="10" as="geometry"/>
                    </mxCell>
                </object>
                <object label="&lt;p style=&quot;line-height: 100%;&quot;&gt;&lt;br&gt;&lt;/p&gt;" type="inport" name="in1" id="12">
                    <mxCell style="whiteSpace=wrap;html=1;aspect=fixed;snapToPoint=1;resizable=0;metaEdit=1;points=[[0,0.5,0,0,0]];editable=1;movable=0;rotatable=1;deletable=1;locked=0;connectable=1;noLabel=0;overflow=visible;direction=east;" vertex="1" parent="10">
                        <mxGeometry x="-5" y="9" width="10" height="10" as="geometry"/>
                    </mxCell>
                </object>
                <object label="&lt;p style=&quot;line-height: 100%;&quot;&gt;&lt;br&gt;&lt;/p&gt;" type="inport" name="in2" id="13">
                    <mxCell style="whiteSpace=wrap;html=1;aspect=fixed;snapToPoint=1;resizable=0;metaEdit=1;points=[[0,0.5,0,0,0]];editable=1;movable=0;rotatable=1;deletable=1;locked=0;connectable=1;noLabel=0;overflow=visible;direction=east;" vertex="1" parent="10">
                        <mxGeometry x="-5" y="26" width="10" height="10" as="geometry"/>
                    </mxCell>
                </object>
                <object label="&lt;font style=&quot;font-size: 11px;&quot;&gt;Constant&lt;/font&gt;" block="Constant" value="z_k_Fr_ENG_mount_ini" type="block" name="" id="16">
                    <mxCell style="whiteSpace=wrap;html=1;fontSize=11;points=[[1,0.5,0,0,0]];metaEdit=1;snapToPoint=0;resizable=0;rotatable=0;allowArrows=0;container=1;resizeWidth=0;connectable=0;collapsible=0;movable=1;" vertex="1" parent="1">
                        <mxGeometry x="140" y="240" width="70" height="40" as="geometry"/>
                    </mxCell>
                </object>
                <object label="&lt;p style=&quot;line-height: 100%;&quot;&gt;&lt;br&gt;&lt;/p&gt;" type="outport" name="out" id="17">
                    <mxCell style="whiteSpace=wrap;html=1;aspect=fixed;snapToPoint=1;resizable=0;metaEdit=1;points=[[1,0.5,0,0,0]];editable=1;movable=0;rotatable=1;deletable=1;locked=0;connectable=1;noLabel=0;overflow=visible;fillColor=#000000;" vertex="1" parent="16">
                        <mxGeometry x="65.25" y="15" width="10" height="10" as="geometry"/>
                    </mxCell>
                </object>
                <mxCell id="18" value="z_k_Fr_ENG_mount_ini" style="text;strokeColor=none;align=center;fillColor=none;html=1;verticalAlign=middle;whiteSpace=wrap;rounded=0;connectable=0;allowArrows=0;resizable=0;" vertex="1" parent="1">
                    <mxGeometry x="140" y="280" width="60" height="30" as="geometry"/>
                </mxCell>
                <object label="Add" block="Add" signs="[:+, :+]" type="block" name="" id="20">
                    <mxCell style="rounded=0;whiteSpace=wrap;html=1;fontSize=11;points=[[0,0.24,0,0,0],[0,0.76,0,0,0],[1,0.5,0,0,0]];metaEdit=1;snapToPoint=0;allowArrows=0;resizable=0;container=1;collapsible=0;movable=1;connectable=0;" vertex="1" parent="1">
                        <mxGeometry x="450" y="130" width="40" height="50" as="geometry"/>
                    </mxCell>
                </object>
                <object label="&lt;p style=&quot;line-height: 100%;&quot;&gt;&lt;br&gt;&lt;/p&gt;" type="outport" name="out" id="21">
                    <mxCell style="whiteSpace=wrap;html=1;aspect=fixed;snapToPoint=1;resizable=0;metaEdit=1;points=[[1,0.5,0,0,0]];editable=1;movable=0;rotatable=1;deletable=1;locked=0;connectable=1;noLabel=0;overflow=visible;fillColor=#000000;" vertex="1" parent="20">
                        <mxGeometry x="35" y="20.285714285714285" width="10" height="10" as="geometry"/>
                    </mxCell>
                </object>
                <object label="&lt;p style=&quot;line-height: 100%;&quot;&gt;&lt;br&gt;&lt;/p&gt;" type="inport" name="in1" id="22">
                    <mxCell style="whiteSpace=wrap;html=1;aspect=fixed;snapToPoint=1;resizable=0;metaEdit=1;points=[[0,0.5,0,0,0]];editable=1;movable=0;rotatable=1;deletable=1;locked=0;connectable=1;noLabel=0;overflow=visible;direction=east;" vertex="1" parent="20">
                        <mxGeometry x="-5" y="9" width="10" height="10" as="geometry"/>
                    </mxCell>
                </object>
                <object label="&lt;p style=&quot;line-height: 100%;&quot;&gt;&lt;br&gt;&lt;/p&gt;" type="inport" name="in2" id="23">
                    <mxCell style="whiteSpace=wrap;html=1;aspect=fixed;snapToPoint=1;resizable=0;metaEdit=1;points=[[0,0.5,0,0,0]];editable=1;movable=0;rotatable=1;deletable=1;locked=0;connectable=1;noLabel=0;overflow=visible;direction=east;" vertex="1" parent="20">
                        <mxGeometry x="-5" y="26" width="10" height="10" as="geometry"/>
                    </mxCell>
                </object>
                <object label="Gain" block="Gain" K="1" type="block" name="" id="24">
                    <mxCell style="triangle;html=1;points=[[0,0.5,0,0,0],[1,0.5,0,0,0]];whiteSpace=wrap;fontSize=11;align=center;spacingLeft=-7;metaEdit=1;snapToPoint=0;allowArrows=0;resizable=0;rotatable=0;container=1;collapsible=0;movable=1;connectable=0;" vertex="1" parent="1">
                        <mxGeometry x="360" y="110" width="50" height="50" as="geometry"/>
                    </mxCell>
                </object>
                <object label="&lt;p style=&quot;line-height: 100%;&quot;&gt;&lt;br&gt;&lt;/p&gt;" type="inport" name="in" id="25">
                    <mxCell style="whiteSpace=wrap;html=1;aspect=fixed;snapToPoint=1;resizable=0;metaEdit=1;points=[[0,0.5,0,0,0]];editable=1;movable=0;rotatable=1;deletable=1;locked=0;connectable=1;noLabel=0;overflow=visible;direction=east;" vertex="1" parent="24">
                        <mxGeometry x="-5" y="20" width="10" height="10" as="geometry"/>
                    </mxCell>
                </object>
                <object label="&lt;p style=&quot;line-height: 100%;&quot;&gt;&lt;br&gt;&lt;/p&gt;" type="outport" name="out" id="26">
                    <mxCell style="whiteSpace=wrap;html=1;aspect=fixed;snapToPoint=1;resizable=0;metaEdit=1;points=[[1,0.5,0,0,0]];editable=1;movable=0;rotatable=1;deletable=1;locked=0;connectable=1;noLabel=0;overflow=visible;fillColor=#000000;" vertex="1" parent="24">
                        <mxGeometry x="45" y="20" width="10" height="10" as="geometry"/>
                    </mxCell>
                </object>
                <object label="Gain" block="Gain" K="1" type="block" name="" id="27">
                    <mxCell style="triangle;html=1;points=[[0,0.5,0,0,0],[1,0.5,0,0,0]];whiteSpace=wrap;fontSize=11;align=center;spacingLeft=-7;metaEdit=1;snapToPoint=0;allowArrows=0;resizable=0;rotatable=0;container=1;collapsible=0;movable=1;connectable=0;" vertex="1" parent="1">
                        <mxGeometry x="360" y="200" width="50" height="50" as="geometry"/>
                    </mxCell>
                </object>
                <object label="&lt;p style=&quot;line-height: 100%;&quot;&gt;&lt;br&gt;&lt;/p&gt;" type="inport" name="in" id="28">
                    <mxCell style="whiteSpace=wrap;html=1;aspect=fixed;snapToPoint=1;resizable=0;metaEdit=1;points=[[0,0.5,0,0,0]];editable=1;movable=0;rotatable=1;deletable=1;locked=0;connectable=1;noLabel=0;overflow=visible;direction=east;" vertex="1" parent="27">
                        <mxGeometry x="-5" y="20" width="10" height="10" as="geometry"/>
                    </mxCell>
                </object>
                <object label="&lt;p style=&quot;line-height: 100%;&quot;&gt;&lt;br&gt;&lt;/p&gt;" type="outport" name="out" id="29">
                    <mxCell style="whiteSpace=wrap;html=1;aspect=fixed;snapToPoint=1;resizable=0;metaEdit=1;points=[[1,0.5,0,0,0]];editable=1;movable=0;rotatable=1;deletable=1;locked=0;connectable=1;noLabel=0;overflow=visible;fillColor=#000000;" vertex="1" parent="27">
                        <mxGeometry x="45" y="20" width="10" height="10" as="geometry"/>
                    </mxCell>
                </object>
                <object label="Gain" block="Gain" K="-1" type="block" name="" id="30">
                    <mxCell style="triangle;html=1;points=[[0,0.5,0,0,0],[1,0.5,0,0,0]];whiteSpace=wrap;fontSize=11;align=center;spacingLeft=-7;metaEdit=1;snapToPoint=0;allowArrows=0;resizable=0;rotatable=0;container=1;collapsible=0;movable=1;connectable=0;" vertex="1" parent="1">
                        <mxGeometry x="530" y="180" width="50" height="50" as="geometry"/>
                    </mxCell>
                </object>
                <object label="&lt;p style=&quot;line-height: 100%;&quot;&gt;&lt;br&gt;&lt;/p&gt;" type="inport" name="in" id="31">
                    <mxCell style="whiteSpace=wrap;html=1;aspect=fixed;snapToPoint=1;resizable=0;metaEdit=1;points=[[0,0.5,0,0,0]];editable=1;movable=0;rotatable=1;deletable=1;locked=0;connectable=1;noLabel=0;overflow=visible;direction=east;" vertex="1" parent="30">
                        <mxGeometry x="-5" y="20" width="10" height="10" as="geometry"/>
                    </mxCell>
                </object>
                <object label="&lt;p style=&quot;line-height: 100%;&quot;&gt;&lt;br&gt;&lt;/p&gt;" type="outport" name="out" id="32">
                    <mxCell style="whiteSpace=wrap;html=1;aspect=fixed;snapToPoint=1;resizable=0;metaEdit=1;points=[[1,0.5,0,0,0]];editable=1;movable=0;rotatable=1;deletable=1;locked=0;connectable=1;noLabel=0;overflow=visible;fillColor=#000000;" vertex="1" parent="30">
                        <mxGeometry x="45" y="20" width="10" height="10" as="geometry"/>
                    </mxCell>
                </object>
                <object label="&lt;font style=&quot;font-size: 11px;&quot;&gt;1/s&lt;/font&gt;" block="Integrator" initialcondition="0" type="block" name="" id="33">
                    <mxCell style="whiteSpace=wrap;html=1;aspect=fixed;fontSize=11;points=[[0,0.5,0,0,0],[1,0.5,0,0,0]];metaEdit=1;snapToPoint=0;resizable=0;rotatable=0;allowArrows=0;container=1;collapsible=0;movable=1;connectable=0;" vertex="1" parent="1">
                        <mxGeometry x="290" y="205" width="40" height="40.00000000000006" as="geometry"/>
                    </mxCell>
                </object>
                <object label="&lt;p style=&quot;line-height: 100%;&quot;&gt;&lt;br&gt;&lt;/p&gt;" type="outport" name="out" id="34">
                    <mxCell style="whiteSpace=wrap;html=1;aspect=fixed;snapToPoint=1;resizable=0;metaEdit=1;points=[[1,0.5,0,0,0]];editable=1;movable=0;rotatable=1;deletable=1;locked=0;connectable=1;noLabel=0;overflow=visible;fillColor=#000000;" vertex="1" parent="33">
                        <mxGeometry x="35" y="15" width="10" height="10" as="geometry"/>
                    </mxCell>
                </object>
                <object label="&lt;p style=&quot;line-height: 100%;&quot;&gt;&lt;br&gt;&lt;/p&gt;" type="inport" name="in" id="35">
                    <mxCell style="whiteSpace=wrap;html=1;aspect=fixed;snapToPoint=1;resizable=0;metaEdit=1;points=[[0,0.5,0,0,0]];editable=1;movable=0;rotatable=1;deletable=1;locked=0;connectable=1;noLabel=0;overflow=visible;direction=east;" vertex="1" parent="33">
                        <mxGeometry x="-5" y="15" width="10" height="10" as="geometry"/>
                    </mxCell>
                </object>
                <object label="&lt;p style=&quot;line-height: 100%;&quot;&gt;&lt;br&gt;&lt;/p&gt;" type="inport" name="initialcondition" id="46">
                    <mxCell style="whiteSpace=wrap;html=1;aspect=fixed;snapToPoint=1;resizable=0;metaEdit=1;points=[[0,0.5,0,0,0]];editable=1;movable=1;rotatable=1;deletable=1;locked=0;connectable=1;noLabel=0;overflow=visible;direction=east;" vertex="1" parent="33">
                        <mxGeometry x="-5.000000000000114" y="28.000000000000057" width="10" height="10" as="geometry"/>
                    </mxCell>
                </object>
                <mxCell id="36" style="edgeStyle=orthogonalEdgeStyle;html=1;exitX=1;exitY=0.5;exitDx=0;exitDy=0;exitPerimeter=0;entryX=0;entryY=0.5;entryDx=0;entryDy=0;entryPerimeter=0;" edge="1" parent="1" source="56" target="12">
                    <mxGeometry relative="1" as="geometry">
                        <mxPoint x="113.99999999999989" y="115" as="sourcePoint"/>
                    </mxGeometry>
                </mxCell>
                <mxCell id="37" style="edgeStyle=orthogonalEdgeStyle;html=1;exitX=1;exitY=0.5;exitDx=0;exitDy=0;exitPerimeter=0;entryX=0;entryY=0.5;entryDx=0;entryDy=0;entryPerimeter=0;" edge="1" parent="1" source="54" target="13">
                    <mxGeometry relative="1" as="geometry">
                        <mxPoint x="114.99999999999989" y="185" as="sourcePoint"/>
                    </mxGeometry>
                </mxCell>
                <mxCell id="38" style="edgeStyle=orthogonalEdgeStyle;html=1;exitX=1;exitY=0.5;exitDx=0;exitDy=0;exitPerimeter=0;entryX=0;entryY=0.5;entryDx=0;entryDy=0;entryPerimeter=0;" edge="1" parent="1" source="11" target="25">
                    <mxGeometry relative="1" as="geometry"/>
                </mxCell>
                <mxCell id="39" style="edgeStyle=orthogonalEdgeStyle;html=1;exitX=1;exitY=0.5;exitDx=0;exitDy=0;exitPerimeter=0;entryX=0;entryY=0.5;entryDx=0;entryDy=0;entryPerimeter=0;" edge="1" parent="1" source="34" target="28">
                    <mxGeometry relative="1" as="geometry"/>
                </mxCell>
                <mxCell id="40" style="edgeStyle=orthogonalEdgeStyle;html=1;exitX=1;exitY=0.5;exitDx=0;exitDy=0;exitPerimeter=0;entryX=0;entryY=0.5;entryDx=0;entryDy=0;entryPerimeter=0;" edge="1" parent="1" source="11" target="35">
                    <mxGeometry relative="1" as="geometry"/>
                </mxCell>
                <mxCell id="41" style="edgeStyle=orthogonalEdgeStyle;html=1;exitX=1;exitY=0.5;exitDx=0;exitDy=0;exitPerimeter=0;entryX=0;entryY=0.5;entryDx=0;entryDy=0;entryPerimeter=0;" edge="1" parent="1" source="26" target="22">
                    <mxGeometry relative="1" as="geometry"/>
                </mxCell>
                <mxCell id="42" style="edgeStyle=orthogonalEdgeStyle;html=1;exitX=1;exitY=0.5;exitDx=0;exitDy=0;exitPerimeter=0;entryX=0;entryY=0.5;entryDx=0;entryDy=0;entryPerimeter=0;" edge="1" parent="1" source="29" target="23">
                    <mxGeometry relative="1" as="geometry"/>
                </mxCell>
                <mxCell id="43" style="edgeStyle=orthogonalEdgeStyle;html=1;exitX=1;exitY=0.5;exitDx=0;exitDy=0;exitPerimeter=0;entryX=0;entryY=0.5;entryDx=0;entryDy=0;entryPerimeter=0;" edge="1" parent="1" source="21" target="60">
                    <mxGeometry relative="1" as="geometry">
                        <mxPoint x="576" y="105" as="targetPoint"/>
                    </mxGeometry>
                </mxCell>
                <mxCell id="44" style="edgeStyle=orthogonalEdgeStyle;html=1;exitX=1;exitY=0.5;exitDx=0;exitDy=0;exitPerimeter=0;entryX=0;entryY=0.5;entryDx=0;entryDy=0;entryPerimeter=0;" edge="1" parent="1" source="21" target="31">
                    <mxGeometry relative="1" as="geometry"/>
                </mxCell>
                <mxCell id="45" style="edgeStyle=orthogonalEdgeStyle;html=1;exitX=1;exitY=0.5;exitDx=0;exitDy=0;exitPerimeter=0;entryX=0;entryY=0.5;entryDx=0;entryDy=0;entryPerimeter=0;" edge="1" parent="1" source="32" target="58">
                    <mxGeometry relative="1" as="geometry">
                        <mxPoint x="616" y="205" as="targetPoint"/>
                    </mxGeometry>
                </mxCell>
                <mxCell id="48" style="edgeStyle=orthogonalEdgeStyle;html=1;exitX=1;exitY=0.5;exitDx=0;exitDy=0;exitPerimeter=0;entryX=0;entryY=0.5;entryDx=0;entryDy=0;entryPerimeter=0;" edge="1" parent="1" source="17" target="46">
                    <mxGeometry relative="1" as="geometry"/>
                </mxCell>
                <mxCell id="49" value="v_ENG2ENG_MNT_F_mps" style="text;strokeColor=none;align=center;fillColor=none;html=1;verticalAlign=middle;whiteSpace=wrap;rounded=0;connectable=0;allowArrows=0;resizable=0;" vertex="1" parent="1">
                    <mxGeometry x="60" y="130" width="60" height="30" as="geometry"/>
                </mxCell>
                <mxCell id="50" value="v_VL2ENG_MNT_F_mps" style="text;strokeColor=none;align=center;fillColor=none;html=1;verticalAlign=middle;whiteSpace=wrap;rounded=0;connectable=0;allowArrows=0;resizable=0;" vertex="1" parent="1">
                    <mxGeometry x="60" y="200" width="60" height="30" as="geometry"/>
                </mxCell>
                <mxCell id="51" value="F_ENG_MNT_F2ENG_N" style="text;strokeColor=none;align=center;fillColor=none;html=1;verticalAlign=middle;whiteSpace=wrap;rounded=0;connectable=0;allowArrows=0;resizable=0;" vertex="1" parent="1">
                    <mxGeometry x="600" y="130" width="60" height="30" as="geometry"/>
                </mxCell>
                <mxCell id="52" value="F_ENG_MNT_F2VL_N" style="text;strokeColor=none;align=center;fillColor=none;html=1;verticalAlign=middle;whiteSpace=wrap;rounded=0;connectable=0;allowArrows=0;resizable=0;" vertex="1" parent="1">
                    <mxGeometry x="625" y="220" width="60" height="30" as="geometry"/>
                </mxCell>
                <object label="&lt;font style=&quot;font-size: 11px;&quot;&gt;%name%&lt;/font&gt;" block="Inport" type="block" name="in2" placeholders="1" id="53">
                    <mxCell style="ellipse;whiteSpace=wrap;html=1;fontSize=18;points=[[1,0.5,0,0,0]];metaEdit=1;snapToPoint=0;resizable=0;rotatable=0;allowArrows=0;container=1;collapsible=0;spacingTop=-5;movable=1;connectable=0;" vertex="1" parent="1">
                        <mxGeometry x="69.99999999999989" y="170" width="50" height="30" as="geometry"/>
                    </mxCell>
                </object>
                <object label="&lt;p style=&quot;line-height: 100%;&quot;&gt;&lt;br&gt;&lt;/p&gt;" type="outport" name="out" id="54">
                    <mxCell style="whiteSpace=wrap;html=1;aspect=fixed;snapToPoint=1;resizable=0;metaEdit=1;points=[[1,0.5,0,0,0]];editable=1;movable=0;rotatable=1;deletable=1;locked=0;connectable=1;noLabel=0;overflow=visible;fillColor=#000000;" vertex="1" parent="53">
                        <mxGeometry x="45" y="10" width="10" height="10" as="geometry"/>
                    </mxCell>
                </object>
                <object label="&lt;font style=&quot;font-size: 11px;&quot;&gt;%name%&lt;/font&gt;" block="Inport" type="block" name="in1" placeholders="1" id="55">
                    <mxCell style="ellipse;whiteSpace=wrap;html=1;fontSize=18;points=[[1,0.5,0,0,0]];metaEdit=1;snapToPoint=0;resizable=0;rotatable=0;allowArrows=0;container=1;collapsible=0;spacingTop=-5;movable=1;connectable=0;" vertex="1" parent="1">
                        <mxGeometry x="69.99999999999989" y="100" width="50" height="30" as="geometry"/>
                    </mxCell>
                </object>
                <object label="&lt;p style=&quot;line-height: 100%;&quot;&gt;&lt;br&gt;&lt;/p&gt;" type="outport" name="out" id="56">
                    <mxCell style="whiteSpace=wrap;html=1;aspect=fixed;snapToPoint=1;resizable=0;metaEdit=1;points=[[1,0.5,0,0,0]];editable=1;movable=0;rotatable=1;deletable=1;locked=0;connectable=1;noLabel=0;overflow=visible;fillColor=#000000;" vertex="1" parent="55">
                        <mxGeometry x="45" y="10" width="10" height="10" as="geometry"/>
                    </mxCell>
                </object>
                <object label="&lt;font style=&quot;font-size: 11px;&quot;&gt;%name%&lt;/font&gt;" block="Outport" type="block" name="out2" placeholders="1" id="57">
                    <mxCell style="ellipse;whiteSpace=wrap;html=1;fontSize=18;points=[[0.02,0.5,0,0,0]];metaEdit=1;snapToPoint=0;resizable=0;rotatable=0;allowArrows=0;container=1;collapsible=0;spacingTop=-4;movable=1;connectable=0;" vertex="1" parent="1">
                        <mxGeometry x="630" y="190" width="50" height="30" as="geometry"/>
                    </mxCell>
                </object>
                <object label="&lt;p style=&quot;line-height: 100%;&quot;&gt;&lt;br&gt;&lt;/p&gt;" type="inport" name="in" id="58">
                    <mxCell style="whiteSpace=wrap;html=1;aspect=fixed;snapToPoint=1;resizable=0;metaEdit=1;points=[[0,0.5,0,0,0]];editable=1;movable=0;rotatable=1;deletable=1;locked=0;connectable=1;noLabel=0;overflow=visible;direction=east;" vertex="1" parent="57">
                        <mxGeometry x="-4" y="10" width="10" height="10" as="geometry"/>
                    </mxCell>
                </object>
                <object label="&lt;font style=&quot;font-size: 11px;&quot;&gt;%name%&lt;/font&gt;" block="Outport" type="block" name="out1" placeholders="1" id="59">
                    <mxCell style="ellipse;whiteSpace=wrap;html=1;fontSize=18;points=[[0.02,0.5,0,0,0]];metaEdit=1;snapToPoint=0;resizable=0;rotatable=0;allowArrows=0;container=1;collapsible=0;spacingTop=-4;movable=1;connectable=0;" vertex="1" parent="1">
                        <mxGeometry x="600" y="100" width="50" height="30" as="geometry"/>
                    </mxCell>
                </object>
                <object label="&lt;p style=&quot;line-height: 100%;&quot;&gt;&lt;br&gt;&lt;/p&gt;" type="inport" name="in" id="60">
                    <mxCell style="whiteSpace=wrap;html=1;aspect=fixed;snapToPoint=1;resizable=0;metaEdit=1;points=[[0,0.5,0,0,0]];editable=1;movable=0;rotatable=1;deletable=1;locked=0;connectable=1;noLabel=0;overflow=visible;direction=east;" vertex="1" parent="59">
                        <mxGeometry x="-4" y="10" width="10" height="10" as="geometry"/>
                    </mxCell>
                </object>
            </root>
        </mxGraphModel>
    </diagram>
    <diagram name="ENG_MNT_R_PNT" id="bphCY3ozLcyeEHqKbA0R">
        <mxGraphModel dx="781" dy="551" grid="1" gridSize="10" guides="1" tooltips="1" connect="1" arrows="0" fold="1" page="1" pageScale="1" pageWidth="827" pageHeight="1169" math="0" shadow="0">
            <root>
                <mxCell id="uEOlPHYpv0gLynLyvFwg-0"/>
                <mxCell id="uEOlPHYpv0gLynLyvFwg-1" parent="uEOlPHYpv0gLynLyvFwg-0"/>
                <object label="Add" block="Add" signs="[:-, :+]" type="block" name="" id="uEOlPHYpv0gLynLyvFwg-2">
                    <mxCell style="rounded=0;whiteSpace=wrap;html=1;fontSize=11;points=[[0,0.24,0,0,0],[0,0.76,0,0,0],[1,0.5,0,0,0]];metaEdit=1;snapToPoint=0;allowArrows=0;resizable=0;container=1;collapsible=0;movable=1;connectable=0;" vertex="1" parent="uEOlPHYpv0gLynLyvFwg-1">
                        <mxGeometry x="210" y="110" width="40" height="50" as="geometry"/>
                    </mxCell>
                </object>
                <object label="&lt;p style=&quot;line-height: 100%;&quot;&gt;&lt;br&gt;&lt;/p&gt;" type="outport" name="out" id="uEOlPHYpv0gLynLyvFwg-3">
                    <mxCell style="whiteSpace=wrap;html=1;aspect=fixed;snapToPoint=1;resizable=0;metaEdit=1;points=[[1,0.5,0,0,0]];editable=1;movable=0;rotatable=1;deletable=1;locked=0;connectable=1;noLabel=0;overflow=visible;fillColor=#000000;" vertex="1" parent="uEOlPHYpv0gLynLyvFwg-2">
                        <mxGeometry x="35" y="20.285714285714285" width="10" height="10" as="geometry"/>
                    </mxCell>
                </object>
                <object label="&lt;p style=&quot;line-height: 100%;&quot;&gt;&lt;br&gt;&lt;/p&gt;" type="inport" name="in1" id="uEOlPHYpv0gLynLyvFwg-4">
                    <mxCell style="whiteSpace=wrap;html=1;aspect=fixed;snapToPoint=1;resizable=0;metaEdit=1;points=[[0,0.5,0,0,0]];editable=1;movable=0;rotatable=1;deletable=1;locked=0;connectable=1;noLabel=0;overflow=visible;direction=east;" vertex="1" parent="uEOlPHYpv0gLynLyvFwg-2">
                        <mxGeometry x="-5" y="9" width="10" height="10" as="geometry"/>
                    </mxCell>
                </object>
                <object label="&lt;p style=&quot;line-height: 100%;&quot;&gt;&lt;br&gt;&lt;/p&gt;" type="inport" name="in2" id="uEOlPHYpv0gLynLyvFwg-5">
                    <mxCell style="whiteSpace=wrap;html=1;aspect=fixed;snapToPoint=1;resizable=0;metaEdit=1;points=[[0,0.5,0,0,0]];editable=1;movable=0;rotatable=1;deletable=1;locked=0;connectable=1;noLabel=0;overflow=visible;direction=east;" vertex="1" parent="uEOlPHYpv0gLynLyvFwg-2">
                        <mxGeometry x="-5" y="26" width="10" height="10" as="geometry"/>
                    </mxCell>
                </object>
                <object label="&lt;font style=&quot;font-size: 11px;&quot;&gt;Constant&lt;/font&gt;" block="Constant" value="z_k_Rr_ENG_mount_ini" type="block" name="" id="uEOlPHYpv0gLynLyvFwg-6">
                    <mxCell style="whiteSpace=wrap;html=1;fontSize=11;points=[[1,0.5,0,0,0]];metaEdit=1;snapToPoint=0;resizable=0;rotatable=0;allowArrows=0;container=1;resizeWidth=0;connectable=0;collapsible=0;movable=1;" vertex="1" parent="uEOlPHYpv0gLynLyvFwg-1">
                        <mxGeometry x="140" y="240" width="70" height="40" as="geometry"/>
                    </mxCell>
                </object>
                <object label="&lt;p style=&quot;line-height: 100%;&quot;&gt;&lt;br&gt;&lt;/p&gt;" type="outport" name="out" id="uEOlPHYpv0gLynLyvFwg-7">
                    <mxCell style="whiteSpace=wrap;html=1;aspect=fixed;snapToPoint=1;resizable=0;metaEdit=1;points=[[1,0.5,0,0,0]];editable=1;movable=0;rotatable=1;deletable=1;locked=0;connectable=1;noLabel=0;overflow=visible;fillColor=#000000;" vertex="1" parent="uEOlPHYpv0gLynLyvFwg-6">
                        <mxGeometry x="65.25" y="15" width="10" height="10" as="geometry"/>
                    </mxCell>
                </object>
                <mxCell id="uEOlPHYpv0gLynLyvFwg-8" value="z_k_Rr_ENG_mount_ini" style="text;strokeColor=none;align=center;fillColor=none;html=1;verticalAlign=middle;whiteSpace=wrap;rounded=0;connectable=0;allowArrows=0;resizable=0;" vertex="1" parent="uEOlPHYpv0gLynLyvFwg-1">
                    <mxGeometry x="140" y="280" width="60" height="30" as="geometry"/>
                </mxCell>
                <object label="Add" block="Add" signs="[:+, :+]" type="block" name="" id="uEOlPHYpv0gLynLyvFwg-9">
                    <mxCell style="rounded=0;whiteSpace=wrap;html=1;fontSize=11;points=[[0,0.24,0,0,0],[0,0.76,0,0,0],[1,0.5,0,0,0]];metaEdit=1;snapToPoint=0;allowArrows=0;resizable=0;container=1;collapsible=0;movable=1;connectable=0;" vertex="1" parent="uEOlPHYpv0gLynLyvFwg-1">
                        <mxGeometry x="450" y="130" width="40" height="50" as="geometry"/>
                    </mxCell>
                </object>
                <object label="&lt;p style=&quot;line-height: 100%;&quot;&gt;&lt;br&gt;&lt;/p&gt;" type="outport" name="out" id="uEOlPHYpv0gLynLyvFwg-10">
                    <mxCell style="whiteSpace=wrap;html=1;aspect=fixed;snapToPoint=1;resizable=0;metaEdit=1;points=[[1,0.5,0,0,0]];editable=1;movable=0;rotatable=1;deletable=1;locked=0;connectable=1;noLabel=0;overflow=visible;fillColor=#000000;" vertex="1" parent="uEOlPHYpv0gLynLyvFwg-9">
                        <mxGeometry x="35" y="20.285714285714285" width="10" height="10" as="geometry"/>
                    </mxCell>
                </object>
                <object label="&lt;p style=&quot;line-height: 100%;&quot;&gt;&lt;br&gt;&lt;/p&gt;" type="inport" name="in1" id="uEOlPHYpv0gLynLyvFwg-11">
                    <mxCell style="whiteSpace=wrap;html=1;aspect=fixed;snapToPoint=1;resizable=0;metaEdit=1;points=[[0,0.5,0,0,0]];editable=1;movable=0;rotatable=1;deletable=1;locked=0;connectable=1;noLabel=0;overflow=visible;direction=east;" vertex="1" parent="uEOlPHYpv0gLynLyvFwg-9">
                        <mxGeometry x="-5" y="9" width="10" height="10" as="geometry"/>
                    </mxCell>
                </object>
                <object label="&lt;p style=&quot;line-height: 100%;&quot;&gt;&lt;br&gt;&lt;/p&gt;" type="inport" name="in2" id="uEOlPHYpv0gLynLyvFwg-12">
                    <mxCell style="whiteSpace=wrap;html=1;aspect=fixed;snapToPoint=1;resizable=0;metaEdit=1;points=[[0,0.5,0,0,0]];editable=1;movable=0;rotatable=1;deletable=1;locked=0;connectable=1;noLabel=0;overflow=visible;direction=east;" vertex="1" parent="uEOlPHYpv0gLynLyvFwg-9">
                        <mxGeometry x="-5" y="26" width="10" height="10" as="geometry"/>
                    </mxCell>
                </object>
                <object label="Gain" block="Gain" K="1" type="block" name="" id="uEOlPHYpv0gLynLyvFwg-13">
                    <mxCell style="triangle;html=1;points=[[0,0.5,0,0,0],[1,0.5,0,0,0]];whiteSpace=wrap;fontSize=11;align=center;spacingLeft=-7;metaEdit=1;snapToPoint=0;allowArrows=0;resizable=0;rotatable=0;container=1;collapsible=0;movable=1;connectable=0;" vertex="1" parent="uEOlPHYpv0gLynLyvFwg-1">
                        <mxGeometry x="360" y="110" width="50" height="50" as="geometry"/>
                    </mxCell>
                </object>
                <object label="&lt;p style=&quot;line-height: 100%;&quot;&gt;&lt;br&gt;&lt;/p&gt;" type="inport" name="in" id="uEOlPHYpv0gLynLyvFwg-14">
                    <mxCell style="whiteSpace=wrap;html=1;aspect=fixed;snapToPoint=1;resizable=0;metaEdit=1;points=[[0,0.5,0,0,0]];editable=1;movable=0;rotatable=1;deletable=1;locked=0;connectable=1;noLabel=0;overflow=visible;direction=east;" vertex="1" parent="uEOlPHYpv0gLynLyvFwg-13">
                        <mxGeometry x="-5" y="20" width="10" height="10" as="geometry"/>
                    </mxCell>
                </object>
                <object label="&lt;p style=&quot;line-height: 100%;&quot;&gt;&lt;br&gt;&lt;/p&gt;" type="outport" name="out" id="uEOlPHYpv0gLynLyvFwg-15">
                    <mxCell style="whiteSpace=wrap;html=1;aspect=fixed;snapToPoint=1;resizable=0;metaEdit=1;points=[[1,0.5,0,0,0]];editable=1;movable=0;rotatable=1;deletable=1;locked=0;connectable=1;noLabel=0;overflow=visible;fillColor=#000000;" vertex="1" parent="uEOlPHYpv0gLynLyvFwg-13">
                        <mxGeometry x="45" y="20" width="10" height="10" as="geometry"/>
                    </mxCell>
                </object>
                <object label="Gain" block="Gain" K="1" type="block" name="" id="uEOlPHYpv0gLynLyvFwg-16">
                    <mxCell style="triangle;html=1;points=[[0,0.5,0,0,0],[1,0.5,0,0,0]];whiteSpace=wrap;fontSize=11;align=center;spacingLeft=-7;metaEdit=1;snapToPoint=0;allowArrows=0;resizable=0;rotatable=0;container=1;collapsible=0;movable=1;connectable=0;" vertex="1" parent="uEOlPHYpv0gLynLyvFwg-1">
                        <mxGeometry x="360" y="200" width="50" height="50" as="geometry"/>
                    </mxCell>
                </object>
                <object label="&lt;p style=&quot;line-height: 100%;&quot;&gt;&lt;br&gt;&lt;/p&gt;" type="inport" name="in" id="uEOlPHYpv0gLynLyvFwg-17">
                    <mxCell style="whiteSpace=wrap;html=1;aspect=fixed;snapToPoint=1;resizable=0;metaEdit=1;points=[[0,0.5,0,0,0]];editable=1;movable=0;rotatable=1;deletable=1;locked=0;connectable=1;noLabel=0;overflow=visible;direction=east;" vertex="1" parent="uEOlPHYpv0gLynLyvFwg-16">
                        <mxGeometry x="-5" y="20" width="10" height="10" as="geometry"/>
                    </mxCell>
                </object>
                <object label="&lt;p style=&quot;line-height: 100%;&quot;&gt;&lt;br&gt;&lt;/p&gt;" type="outport" name="out" id="uEOlPHYpv0gLynLyvFwg-18">
                    <mxCell style="whiteSpace=wrap;html=1;aspect=fixed;snapToPoint=1;resizable=0;metaEdit=1;points=[[1,0.5,0,0,0]];editable=1;movable=0;rotatable=1;deletable=1;locked=0;connectable=1;noLabel=0;overflow=visible;fillColor=#000000;" vertex="1" parent="uEOlPHYpv0gLynLyvFwg-16">
                        <mxGeometry x="45" y="20" width="10" height="10" as="geometry"/>
                    </mxCell>
                </object>
                <object label="Gain" block="Gain" K="-1" type="block" name="" id="uEOlPHYpv0gLynLyvFwg-19">
                    <mxCell style="triangle;html=1;points=[[0,0.5,0,0,0],[1,0.5,0,0,0]];whiteSpace=wrap;fontSize=11;align=center;spacingLeft=-7;metaEdit=1;snapToPoint=0;allowArrows=0;resizable=0;rotatable=0;container=1;collapsible=0;movable=1;connectable=0;" vertex="1" parent="uEOlPHYpv0gLynLyvFwg-1">
                        <mxGeometry x="530" y="180" width="50" height="50" as="geometry"/>
                    </mxCell>
                </object>
                <object label="&lt;p style=&quot;line-height: 100%;&quot;&gt;&lt;br&gt;&lt;/p&gt;" type="inport" name="in" id="uEOlPHYpv0gLynLyvFwg-20">
                    <mxCell style="whiteSpace=wrap;html=1;aspect=fixed;snapToPoint=1;resizable=0;metaEdit=1;points=[[0,0.5,0,0,0]];editable=1;movable=0;rotatable=1;deletable=1;locked=0;connectable=1;noLabel=0;overflow=visible;direction=east;" vertex="1" parent="uEOlPHYpv0gLynLyvFwg-19">
                        <mxGeometry x="-5" y="20" width="10" height="10" as="geometry"/>
                    </mxCell>
                </object>
                <object label="&lt;p style=&quot;line-height: 100%;&quot;&gt;&lt;br&gt;&lt;/p&gt;" type="outport" name="out" id="uEOlPHYpv0gLynLyvFwg-21">
                    <mxCell style="whiteSpace=wrap;html=1;aspect=fixed;snapToPoint=1;resizable=0;metaEdit=1;points=[[1,0.5,0,0,0]];editable=1;movable=0;rotatable=1;deletable=1;locked=0;connectable=1;noLabel=0;overflow=visible;fillColor=#000000;" vertex="1" parent="uEOlPHYpv0gLynLyvFwg-19">
                        <mxGeometry x="45" y="20" width="10" height="10" as="geometry"/>
                    </mxCell>
                </object>
                <object label="&lt;font style=&quot;font-size: 11px;&quot;&gt;1/s&lt;/font&gt;" block="Integrator" initialcondition="0" type="block" name="" id="uEOlPHYpv0gLynLyvFwg-22">
                    <mxCell style="whiteSpace=wrap;html=1;aspect=fixed;fontSize=11;points=[[0,0.5,0,0,0],[1,0.5,0,0,0]];metaEdit=1;snapToPoint=0;resizable=0;rotatable=0;allowArrows=0;container=1;collapsible=0;movable=1;connectable=0;" vertex="1" parent="uEOlPHYpv0gLynLyvFwg-1">
                        <mxGeometry x="290" y="205" width="40" height="40.00000000000006" as="geometry"/>
                    </mxCell>
                </object>
                <object label="&lt;p style=&quot;line-height: 100%;&quot;&gt;&lt;br&gt;&lt;/p&gt;" type="outport" name="out" id="uEOlPHYpv0gLynLyvFwg-23">
                    <mxCell style="whiteSpace=wrap;html=1;aspect=fixed;snapToPoint=1;resizable=0;metaEdit=1;points=[[1,0.5,0,0,0]];editable=1;movable=0;rotatable=1;deletable=1;locked=0;connectable=1;noLabel=0;overflow=visible;fillColor=#000000;" vertex="1" parent="uEOlPHYpv0gLynLyvFwg-22">
                        <mxGeometry x="35" y="15" width="10" height="10" as="geometry"/>
                    </mxCell>
                </object>
                <object label="&lt;p style=&quot;line-height: 100%;&quot;&gt;&lt;br&gt;&lt;/p&gt;" type="inport" name="in" id="uEOlPHYpv0gLynLyvFwg-24">
                    <mxCell style="whiteSpace=wrap;html=1;aspect=fixed;snapToPoint=1;resizable=0;metaEdit=1;points=[[0,0.5,0,0,0]];editable=1;movable=0;rotatable=1;deletable=1;locked=0;connectable=1;noLabel=0;overflow=visible;direction=east;" vertex="1" parent="uEOlPHYpv0gLynLyvFwg-22">
                        <mxGeometry x="-5" y="15" width="10" height="10" as="geometry"/>
                    </mxCell>
                </object>
                <object label="&lt;p style=&quot;line-height: 100%;&quot;&gt;&lt;br&gt;&lt;/p&gt;" type="inport" name="initialcondition" id="uEOlPHYpv0gLynLyvFwg-25">
                    <mxCell style="whiteSpace=wrap;html=1;aspect=fixed;snapToPoint=1;resizable=0;metaEdit=1;points=[[0,0.5,0,0,0]];editable=1;movable=1;rotatable=1;deletable=1;locked=0;connectable=1;noLabel=0;overflow=visible;direction=east;" vertex="1" parent="uEOlPHYpv0gLynLyvFwg-22">
                        <mxGeometry x="-5.000000000000114" y="28.000000000000057" width="10" height="10" as="geometry"/>
                    </mxCell>
                </object>
                <mxCell id="uEOlPHYpv0gLynLyvFwg-26" style="edgeStyle=orthogonalEdgeStyle;html=1;exitX=1;exitY=0.5;exitDx=0;exitDy=0;exitPerimeter=0;entryX=0;entryY=0.5;entryDx=0;entryDy=0;entryPerimeter=0;" edge="1" parent="uEOlPHYpv0gLynLyvFwg-1" source="uEOlPHYpv0gLynLyvFwg-44" target="uEOlPHYpv0gLynLyvFwg-4">
                    <mxGeometry relative="1" as="geometry">
                        <mxPoint x="113.99999999999989" y="115" as="sourcePoint"/>
                    </mxGeometry>
                </mxCell>
                <mxCell id="uEOlPHYpv0gLynLyvFwg-27" style="edgeStyle=orthogonalEdgeStyle;html=1;exitX=1;exitY=0.5;exitDx=0;exitDy=0;exitPerimeter=0;entryX=0;entryY=0.5;entryDx=0;entryDy=0;entryPerimeter=0;" edge="1" parent="uEOlPHYpv0gLynLyvFwg-1" source="uEOlPHYpv0gLynLyvFwg-42" target="uEOlPHYpv0gLynLyvFwg-5">
                    <mxGeometry relative="1" as="geometry">
                        <mxPoint x="114.99999999999989" y="185" as="sourcePoint"/>
                    </mxGeometry>
                </mxCell>
                <mxCell id="uEOlPHYpv0gLynLyvFwg-28" style="edgeStyle=orthogonalEdgeStyle;html=1;exitX=1;exitY=0.5;exitDx=0;exitDy=0;exitPerimeter=0;entryX=0;entryY=0.5;entryDx=0;entryDy=0;entryPerimeter=0;" edge="1" parent="uEOlPHYpv0gLynLyvFwg-1" source="uEOlPHYpv0gLynLyvFwg-3" target="uEOlPHYpv0gLynLyvFwg-14">
                    <mxGeometry relative="1" as="geometry"/>
                </mxCell>
                <mxCell id="uEOlPHYpv0gLynLyvFwg-29" style="edgeStyle=orthogonalEdgeStyle;html=1;exitX=1;exitY=0.5;exitDx=0;exitDy=0;exitPerimeter=0;entryX=0;entryY=0.5;entryDx=0;entryDy=0;entryPerimeter=0;" edge="1" parent="uEOlPHYpv0gLynLyvFwg-1" source="uEOlPHYpv0gLynLyvFwg-23" target="uEOlPHYpv0gLynLyvFwg-17">
                    <mxGeometry relative="1" as="geometry"/>
                </mxCell>
                <mxCell id="uEOlPHYpv0gLynLyvFwg-30" style="edgeStyle=orthogonalEdgeStyle;html=1;exitX=1;exitY=0.5;exitDx=0;exitDy=0;exitPerimeter=0;entryX=0;entryY=0.5;entryDx=0;entryDy=0;entryPerimeter=0;" edge="1" parent="uEOlPHYpv0gLynLyvFwg-1" source="uEOlPHYpv0gLynLyvFwg-3" target="uEOlPHYpv0gLynLyvFwg-24">
                    <mxGeometry relative="1" as="geometry"/>
                </mxCell>
                <mxCell id="uEOlPHYpv0gLynLyvFwg-31" style="edgeStyle=orthogonalEdgeStyle;html=1;exitX=1;exitY=0.5;exitDx=0;exitDy=0;exitPerimeter=0;entryX=0;entryY=0.5;entryDx=0;entryDy=0;entryPerimeter=0;" edge="1" parent="uEOlPHYpv0gLynLyvFwg-1" source="uEOlPHYpv0gLynLyvFwg-15" target="uEOlPHYpv0gLynLyvFwg-11">
                    <mxGeometry relative="1" as="geometry"/>
                </mxCell>
                <mxCell id="uEOlPHYpv0gLynLyvFwg-32" style="edgeStyle=orthogonalEdgeStyle;html=1;exitX=1;exitY=0.5;exitDx=0;exitDy=0;exitPerimeter=0;entryX=0;entryY=0.5;entryDx=0;entryDy=0;entryPerimeter=0;" edge="1" parent="uEOlPHYpv0gLynLyvFwg-1" source="uEOlPHYpv0gLynLyvFwg-18" target="uEOlPHYpv0gLynLyvFwg-12">
                    <mxGeometry relative="1" as="geometry"/>
                </mxCell>
                <mxCell id="uEOlPHYpv0gLynLyvFwg-33" style="edgeStyle=orthogonalEdgeStyle;html=1;exitX=1;exitY=0.5;exitDx=0;exitDy=0;exitPerimeter=0;entryX=0;entryY=0.5;entryDx=0;entryDy=0;entryPerimeter=0;" edge="1" parent="uEOlPHYpv0gLynLyvFwg-1" source="uEOlPHYpv0gLynLyvFwg-10" target="uEOlPHYpv0gLynLyvFwg-48">
                    <mxGeometry relative="1" as="geometry">
                        <mxPoint x="576" y="105" as="targetPoint"/>
                    </mxGeometry>
                </mxCell>
                <mxCell id="uEOlPHYpv0gLynLyvFwg-34" style="edgeStyle=orthogonalEdgeStyle;html=1;exitX=1;exitY=0.5;exitDx=0;exitDy=0;exitPerimeter=0;entryX=0;entryY=0.5;entryDx=0;entryDy=0;entryPerimeter=0;" edge="1" parent="uEOlPHYpv0gLynLyvFwg-1" source="uEOlPHYpv0gLynLyvFwg-10" target="uEOlPHYpv0gLynLyvFwg-20">
                    <mxGeometry relative="1" as="geometry"/>
                </mxCell>
                <mxCell id="uEOlPHYpv0gLynLyvFwg-35" style="edgeStyle=orthogonalEdgeStyle;html=1;exitX=1;exitY=0.5;exitDx=0;exitDy=0;exitPerimeter=0;entryX=0;entryY=0.5;entryDx=0;entryDy=0;entryPerimeter=0;" edge="1" parent="uEOlPHYpv0gLynLyvFwg-1" source="uEOlPHYpv0gLynLyvFwg-21" target="uEOlPHYpv0gLynLyvFwg-46">
                    <mxGeometry relative="1" as="geometry">
                        <mxPoint x="616" y="205" as="targetPoint"/>
                    </mxGeometry>
                </mxCell>
                <mxCell id="uEOlPHYpv0gLynLyvFwg-36" style="edgeStyle=orthogonalEdgeStyle;html=1;exitX=1;exitY=0.5;exitDx=0;exitDy=0;exitPerimeter=0;entryX=0;entryY=0.5;entryDx=0;entryDy=0;entryPerimeter=0;" edge="1" parent="uEOlPHYpv0gLynLyvFwg-1" source="uEOlPHYpv0gLynLyvFwg-7" target="uEOlPHYpv0gLynLyvFwg-25">
                    <mxGeometry relative="1" as="geometry"/>
                </mxCell>
                <mxCell id="uEOlPHYpv0gLynLyvFwg-37" value="v_ENG2ENG_MNT_R_mps" style="text;strokeColor=none;align=center;fillColor=none;html=1;verticalAlign=middle;whiteSpace=wrap;rounded=0;connectable=0;allowArrows=0;resizable=0;" vertex="1" parent="uEOlPHYpv0gLynLyvFwg-1">
                    <mxGeometry x="60" y="130" width="60" height="30" as="geometry"/>
                </mxCell>
                <mxCell id="uEOlPHYpv0gLynLyvFwg-38" value="v_VL2ENG_MNT_R_mps" style="text;strokeColor=none;align=center;fillColor=none;html=1;verticalAlign=middle;whiteSpace=wrap;rounded=0;connectable=0;allowArrows=0;resizable=0;" vertex="1" parent="uEOlPHYpv0gLynLyvFwg-1">
                    <mxGeometry x="60" y="200" width="60" height="30" as="geometry"/>
                </mxCell>
                <mxCell id="uEOlPHYpv0gLynLyvFwg-39" value="F_ENG_MNT_R2ENG_N" style="text;strokeColor=none;align=center;fillColor=none;html=1;verticalAlign=middle;whiteSpace=wrap;rounded=0;connectable=0;allowArrows=0;resizable=0;" vertex="1" parent="uEOlPHYpv0gLynLyvFwg-1">
                    <mxGeometry x="600" y="130" width="60" height="30" as="geometry"/>
                </mxCell>
                <mxCell id="uEOlPHYpv0gLynLyvFwg-40" value="F_ENG_MNT_R2VL_N" style="text;strokeColor=none;align=center;fillColor=none;html=1;verticalAlign=middle;whiteSpace=wrap;rounded=0;connectable=0;allowArrows=0;resizable=0;" vertex="1" parent="uEOlPHYpv0gLynLyvFwg-1">
                    <mxGeometry x="625" y="220" width="60" height="30" as="geometry"/>
                </mxCell>
                <object label="&lt;font style=&quot;font-size: 11px;&quot;&gt;%name%&lt;/font&gt;" block="Inport" type="block" name="in2" placeholders="1" id="uEOlPHYpv0gLynLyvFwg-41">
                    <mxCell style="ellipse;whiteSpace=wrap;html=1;fontSize=18;points=[[1,0.5,0,0,0]];metaEdit=1;snapToPoint=0;resizable=0;rotatable=0;allowArrows=0;container=1;collapsible=0;spacingTop=-5;movable=1;connectable=0;" vertex="1" parent="uEOlPHYpv0gLynLyvFwg-1">
                        <mxGeometry x="69.99999999999989" y="170" width="50" height="30" as="geometry"/>
                    </mxCell>
                </object>
                <object label="&lt;p style=&quot;line-height: 100%;&quot;&gt;&lt;br&gt;&lt;/p&gt;" type="outport" name="out" id="uEOlPHYpv0gLynLyvFwg-42">
                    <mxCell style="whiteSpace=wrap;html=1;aspect=fixed;snapToPoint=1;resizable=0;metaEdit=1;points=[[1,0.5,0,0,0]];editable=1;movable=0;rotatable=1;deletable=1;locked=0;connectable=1;noLabel=0;overflow=visible;fillColor=#000000;" vertex="1" parent="uEOlPHYpv0gLynLyvFwg-41">
                        <mxGeometry x="45" y="10" width="10" height="10" as="geometry"/>
                    </mxCell>
                </object>
                <object label="&lt;font style=&quot;font-size: 11px;&quot;&gt;%name%&lt;/font&gt;" block="Inport" type="block" name="in1" placeholders="1" id="uEOlPHYpv0gLynLyvFwg-43">
                    <mxCell style="ellipse;whiteSpace=wrap;html=1;fontSize=18;points=[[1,0.5,0,0,0]];metaEdit=1;snapToPoint=0;resizable=0;rotatable=0;allowArrows=0;container=1;collapsible=0;spacingTop=-5;movable=1;connectable=0;" vertex="1" parent="uEOlPHYpv0gLynLyvFwg-1">
                        <mxGeometry x="69.99999999999989" y="100" width="50" height="30" as="geometry"/>
                    </mxCell>
                </object>
                <object label="&lt;p style=&quot;line-height: 100%;&quot;&gt;&lt;br&gt;&lt;/p&gt;" type="outport" name="out" id="uEOlPHYpv0gLynLyvFwg-44">
                    <mxCell style="whiteSpace=wrap;html=1;aspect=fixed;snapToPoint=1;resizable=0;metaEdit=1;points=[[1,0.5,0,0,0]];editable=1;movable=0;rotatable=1;deletable=1;locked=0;connectable=1;noLabel=0;overflow=visible;fillColor=#000000;" vertex="1" parent="uEOlPHYpv0gLynLyvFwg-43">
                        <mxGeometry x="45" y="10" width="10" height="10" as="geometry"/>
                    </mxCell>
                </object>
                <object label="&lt;font style=&quot;font-size: 11px;&quot;&gt;%name%&lt;/font&gt;" block="Outport" type="block" name="out2" placeholders="1" id="uEOlPHYpv0gLynLyvFwg-45">
                    <mxCell style="ellipse;whiteSpace=wrap;html=1;fontSize=18;points=[[0.02,0.5,0,0,0]];metaEdit=1;snapToPoint=0;resizable=0;rotatable=0;allowArrows=0;container=1;collapsible=0;spacingTop=-4;movable=1;connectable=0;" vertex="1" parent="uEOlPHYpv0gLynLyvFwg-1">
                        <mxGeometry x="630" y="190" width="50" height="30" as="geometry"/>
                    </mxCell>
                </object>
                <object label="&lt;p style=&quot;line-height: 100%;&quot;&gt;&lt;br&gt;&lt;/p&gt;" type="inport" name="in" id="uEOlPHYpv0gLynLyvFwg-46">
                    <mxCell style="whiteSpace=wrap;html=1;aspect=fixed;snapToPoint=1;resizable=0;metaEdit=1;points=[[0,0.5,0,0,0]];editable=1;movable=0;rotatable=1;deletable=1;locked=0;connectable=1;noLabel=0;overflow=visible;direction=east;" vertex="1" parent="uEOlPHYpv0gLynLyvFwg-45">
                        <mxGeometry x="-4" y="10" width="10" height="10" as="geometry"/>
                    </mxCell>
                </object>
                <object label="&lt;font style=&quot;font-size: 11px;&quot;&gt;%name%&lt;/font&gt;" block="Outport" type="block" name="out1" placeholders="1" id="uEOlPHYpv0gLynLyvFwg-47">
                    <mxCell style="ellipse;whiteSpace=wrap;html=1;fontSize=18;points=[[0.02,0.5,0,0,0]];metaEdit=1;snapToPoint=0;resizable=0;rotatable=0;allowArrows=0;container=1;collapsible=0;spacingTop=-4;movable=1;connectable=0;" vertex="1" parent="uEOlPHYpv0gLynLyvFwg-1">
                        <mxGeometry x="600" y="100" width="50" height="30" as="geometry"/>
                    </mxCell>
                </object>
                <object label="&lt;p style=&quot;line-height: 100%;&quot;&gt;&lt;br&gt;&lt;/p&gt;" type="inport" name="in" id="uEOlPHYpv0gLynLyvFwg-48">
                    <mxCell style="whiteSpace=wrap;html=1;aspect=fixed;snapToPoint=1;resizable=0;metaEdit=1;points=[[0,0.5,0,0,0]];editable=1;movable=0;rotatable=1;deletable=1;locked=0;connectable=1;noLabel=0;overflow=visible;direction=east;" vertex="1" parent="uEOlPHYpv0gLynLyvFwg-47">
                        <mxGeometry x="-4" y="10" width="10" height="10" as="geometry"/>
                    </mxCell>
                </object>
            </root>
        </mxGraphModel>
    </diagram>
    <diagram id="0LyVUsnQtkYyl0VRKzqZ" name="pitch_rate">
        <mxGraphModel dx="541" dy="551" grid="1" gridSize="10" guides="1" tooltips="1" connect="1" arrows="1" fold="1" page="1" pageScale="1" pageWidth="827" pageHeight="1169" math="0" shadow="0">
            <root>
                <mxCell id="0"/>
                <mxCell id="1" parent="0"/>
                <object label="&lt;font style=&quot;font-size: 11px;&quot;&gt;%name%&lt;/font&gt;" block="Inport" type="block" name="in1" placeholders="1" id="E7xtdBU6p7a8pyWmshAc-1">
                    <mxCell style="ellipse;whiteSpace=wrap;html=1;fontSize=18;points=[[1,0.5,0,0,0]];metaEdit=1;snapToPoint=0;resizable=0;rotatable=0;allowArrows=0;container=1;collapsible=0;spacingTop=-5;movable=1;connectable=0;" vertex="1" parent="1">
                        <mxGeometry x="59.999999999999886" y="130" width="50" height="30" as="geometry"/>
                    </mxCell>
                </object>
                <object label="&lt;p style=&quot;line-height: 100%;&quot;&gt;&lt;br&gt;&lt;/p&gt;" type="outport" name="out" id="E7xtdBU6p7a8pyWmshAc-2">
                    <mxCell style="whiteSpace=wrap;html=1;aspect=fixed;snapToPoint=1;resizable=0;metaEdit=1;points=[[1,0.5,0,0,0]];editable=1;movable=0;rotatable=1;deletable=1;locked=0;connectable=1;noLabel=0;overflow=visible;fillColor=#000000;" vertex="1" parent="E7xtdBU6p7a8pyWmshAc-1">
                        <mxGeometry x="45" y="10" width="10" height="10" as="geometry"/>
                    </mxCell>
                </object>
                <object label="&lt;font style=&quot;font-size: 11px;&quot;&gt;%name%&lt;/font&gt;" block="Inport" type="block" name="in2" placeholders="1" id="E7xtdBU6p7a8pyWmshAc-3">
                    <mxCell style="ellipse;whiteSpace=wrap;html=1;fontSize=18;points=[[1,0.5,0,0,0]];metaEdit=1;snapToPoint=0;resizable=0;rotatable=0;allowArrows=0;container=1;collapsible=0;spacingTop=-5;movable=1;connectable=0;" vertex="1" parent="1">
                        <mxGeometry x="59.999999999999886" y="240" width="50" height="30" as="geometry"/>
                    </mxCell>
                </object>
                <object label="&lt;p style=&quot;line-height: 100%;&quot;&gt;&lt;br&gt;&lt;/p&gt;" type="outport" name="out" id="E7xtdBU6p7a8pyWmshAc-4">
                    <mxCell style="whiteSpace=wrap;html=1;aspect=fixed;snapToPoint=1;resizable=0;metaEdit=1;points=[[1,0.5,0,0,0]];editable=1;movable=0;rotatable=1;deletable=1;locked=0;connectable=1;noLabel=0;overflow=visible;fillColor=#000000;" vertex="1" parent="E7xtdBU6p7a8pyWmshAc-3">
                        <mxGeometry x="45" y="10" width="10" height="10" as="geometry"/>
                    </mxCell>
                </object>
                <object label="&lt;p&gt;&lt;font style=&quot;font-size: 22px;&quot;&gt;*&lt;/font&gt;&lt;/p&gt;" block="Product" type="block" name="" id="E7xtdBU6p7a8pyWmshAc-5">
                    <mxCell style="whiteSpace=wrap;html=1;aspect=fixed;fontSize=11;points=[[0,0.25,0,0,0],[0,0.75,0,0,0],[1,0.5,0,0,0]];metaEdit=1;snapToPoint=0;resizable=0;rotatable=0;allowArrows=0;container=1;collapsible=0;spacingBottom=-7;movable=1;connectable=0;" vertex="1" parent="1">
                        <mxGeometry x="210" y="130" width="40" height="40" as="geometry"/>
                    </mxCell>
                </object>
                <object label="&lt;p style=&quot;line-height: 100%;&quot;&gt;&lt;br&gt;&lt;/p&gt;" type="outport" name="out" id="E7xtdBU6p7a8pyWmshAc-6">
                    <mxCell style="whiteSpace=wrap;html=1;aspect=fixed;snapToPoint=1;resizable=0;metaEdit=1;points=[[1,0.5,0,0,0]];editable=1;movable=0;rotatable=1;deletable=1;locked=0;connectable=1;noLabel=0;overflow=visible;fillColor=#000000;" vertex="1" parent="E7xtdBU6p7a8pyWmshAc-5">
                        <mxGeometry x="35" y="15" width="10" height="10" as="geometry"/>
                    </mxCell>
                </object>
                <object label="&lt;p style=&quot;line-height: 100%;&quot;&gt;&lt;br&gt;&lt;/p&gt;" type="inport" name="in1" id="E7xtdBU6p7a8pyWmshAc-7">
                    <mxCell style="whiteSpace=wrap;html=1;aspect=fixed;snapToPoint=1;resizable=0;metaEdit=1;points=[[0,0.5,0,0,0]];editable=1;movable=0;rotatable=1;deletable=1;locked=0;connectable=1;noLabel=0;overflow=visible;direction=east;" vertex="1" parent="E7xtdBU6p7a8pyWmshAc-5">
                        <mxGeometry x="-5" y="5" width="10" height="10" as="geometry"/>
                    </mxCell>
                </object>
                <object label="&lt;p style=&quot;line-height: 100%;&quot;&gt;&lt;br&gt;&lt;/p&gt;" type="inport" name="in2" id="E7xtdBU6p7a8pyWmshAc-8">
                    <mxCell style="whiteSpace=wrap;html=1;aspect=fixed;snapToPoint=1;resizable=0;metaEdit=1;points=[[0,0.5,0,0,0]];editable=1;movable=0;rotatable=1;deletable=1;locked=0;connectable=1;noLabel=0;overflow=visible;direction=east;" vertex="1" parent="E7xtdBU6p7a8pyWmshAc-5">
                        <mxGeometry x="-5" y="25" width="10" height="10" as="geometry"/>
                    </mxCell>
                </object>
                <object label="&lt;p&gt;&lt;font style=&quot;font-size: 22px;&quot;&gt;*&lt;/font&gt;&lt;/p&gt;" block="Product" type="block" name="" id="E7xtdBU6p7a8pyWmshAc-9">
                    <mxCell style="whiteSpace=wrap;html=1;aspect=fixed;fontSize=11;points=[[0,0.25,0,0,0],[0,0.75,0,0,0],[1,0.5,0,0,0]];metaEdit=1;snapToPoint=0;resizable=0;rotatable=0;allowArrows=0;container=1;collapsible=0;spacingBottom=-7;movable=1;connectable=0;" vertex="1" parent="1">
                        <mxGeometry x="210" y="240" width="40" height="40" as="geometry"/>
                    </mxCell>
                </object>
                <object label="&lt;p style=&quot;line-height: 100%;&quot;&gt;&lt;br&gt;&lt;/p&gt;" type="outport" name="out" id="E7xtdBU6p7a8pyWmshAc-10">
                    <mxCell style="whiteSpace=wrap;html=1;aspect=fixed;snapToPoint=1;resizable=0;metaEdit=1;points=[[1,0.5,0,0,0]];editable=1;movable=0;rotatable=1;deletable=1;locked=0;connectable=1;noLabel=0;overflow=visible;fillColor=#000000;" vertex="1" parent="E7xtdBU6p7a8pyWmshAc-9">
                        <mxGeometry x="35" y="15" width="10" height="10" as="geometry"/>
                    </mxCell>
                </object>
                <object label="&lt;p style=&quot;line-height: 100%;&quot;&gt;&lt;br&gt;&lt;/p&gt;" type="inport" name="in1" id="E7xtdBU6p7a8pyWmshAc-11">
                    <mxCell style="whiteSpace=wrap;html=1;aspect=fixed;snapToPoint=1;resizable=0;metaEdit=1;points=[[0,0.5,0,0,0]];editable=1;movable=0;rotatable=1;deletable=1;locked=0;connectable=1;noLabel=0;overflow=visible;direction=east;" vertex="1" parent="E7xtdBU6p7a8pyWmshAc-9">
                        <mxGeometry x="-5" y="5" width="10" height="10" as="geometry"/>
                    </mxCell>
                </object>
                <object label="&lt;p style=&quot;line-height: 100%;&quot;&gt;&lt;br&gt;&lt;/p&gt;" type="inport" name="in2" id="E7xtdBU6p7a8pyWmshAc-12">
                    <mxCell style="whiteSpace=wrap;html=1;aspect=fixed;snapToPoint=1;resizable=0;metaEdit=1;points=[[0,0.5,0,0,0]];editable=1;movable=0;rotatable=1;deletable=1;locked=0;connectable=1;noLabel=0;overflow=visible;direction=east;" vertex="1" parent="E7xtdBU6p7a8pyWmshAc-9">
                        <mxGeometry x="-5" y="25" width="10" height="10" as="geometry"/>
                    </mxCell>
                </object>
                <object label="&lt;font style=&quot;font-size: 11px;&quot;&gt;Constant&lt;/font&gt;" block="Constant" value="0" type="block" name="I_ENG2Fr_ENG_mount" id="E7xtdBU6p7a8pyWmshAc-13">
                    <mxCell style="whiteSpace=wrap;html=1;fontSize=11;points=[[1,0.5,0,0,0]];metaEdit=1;snapToPoint=0;resizable=0;rotatable=0;allowArrows=0;container=1;resizeWidth=0;connectable=0;collapsible=0;movable=1;" vertex="1" parent="1">
                        <mxGeometry x="110" y="180" width="70" height="40" as="geometry"/>
                    </mxCell>
                </object>
                <object label="&lt;p style=&quot;line-height: 100%;&quot;&gt;&lt;br&gt;&lt;/p&gt;" type="outport" name="out" id="E7xtdBU6p7a8pyWmshAc-14">
                    <mxCell style="whiteSpace=wrap;html=1;aspect=fixed;snapToPoint=1;resizable=0;metaEdit=1;points=[[1,0.5,0,0,0]];editable=1;movable=0;rotatable=1;deletable=1;locked=0;connectable=1;noLabel=0;overflow=visible;fillColor=#000000;" vertex="1" parent="E7xtdBU6p7a8pyWmshAc-13">
                        <mxGeometry x="65.25" y="15" width="10" height="10" as="geometry"/>
                    </mxCell>
                </object>
                <object label="&lt;font style=&quot;font-size: 11px;&quot;&gt;Constant&lt;/font&gt;" block="Constant" value="0" type="block" name="I_ENG2Rr_ENG_mount" id="E7xtdBU6p7a8pyWmshAc-15">
                    <mxCell style="whiteSpace=wrap;html=1;fontSize=11;points=[[1,0.5,0,0,0]];metaEdit=1;snapToPoint=0;resizable=0;rotatable=0;allowArrows=0;container=1;resizeWidth=0;connectable=0;collapsible=0;movable=1;" vertex="1" parent="1">
                        <mxGeometry x="110" y="300" width="70" height="40" as="geometry"/>
                    </mxCell>
                </object>
                <object label="&lt;p style=&quot;line-height: 100%;&quot;&gt;&lt;br&gt;&lt;/p&gt;" type="outport" name="out" id="E7xtdBU6p7a8pyWmshAc-16">
                    <mxCell style="whiteSpace=wrap;html=1;aspect=fixed;snapToPoint=1;resizable=0;metaEdit=1;points=[[1,0.5,0,0,0]];editable=1;movable=0;rotatable=1;deletable=1;locked=0;connectable=1;noLabel=0;overflow=visible;fillColor=#000000;" vertex="1" parent="E7xtdBU6p7a8pyWmshAc-15">
                        <mxGeometry x="65.25" y="15" width="10" height="10" as="geometry"/>
                    </mxCell>
                </object>
                <object label="Add" block="Add" signs="[:+, :+]" type="block" name="" id="E7xtdBU6p7a8pyWmshAc-17">
                    <mxCell style="rounded=0;whiteSpace=wrap;html=1;fontSize=11;points=[[0,0.24,0,0,0],[0,0.76,0,0,0],[1,0.5,0,0,0]];metaEdit=1;snapToPoint=0;allowArrows=0;resizable=0;container=1;collapsible=0;movable=1;connectable=0;" vertex="1" parent="1">
                        <mxGeometry x="300" y="150" width="40" height="80" as="geometry"/>
                    </mxCell>
                </object>
                <object label="&lt;p style=&quot;line-height: 100%;&quot;&gt;&lt;br&gt;&lt;/p&gt;" type="outport" name="out" id="E7xtdBU6p7a8pyWmshAc-18">
                    <mxCell style="whiteSpace=wrap;html=1;aspect=fixed;snapToPoint=1;resizable=0;metaEdit=1;points=[[1,0.5,0,0,0]];editable=1;movable=0;rotatable=1;deletable=1;locked=0;connectable=1;noLabel=0;overflow=visible;fillColor=#000000;" vertex="1" parent="E7xtdBU6p7a8pyWmshAc-17">
                        <mxGeometry x="35" y="34.285714285714285" width="10" height="10" as="geometry"/>
                    </mxCell>
                </object>
                <object label="&lt;p style=&quot;line-height: 100%;&quot;&gt;&lt;br&gt;&lt;/p&gt;" type="inport" name="in1" id="E7xtdBU6p7a8pyWmshAc-19">
                    <mxCell style="whiteSpace=wrap;html=1;aspect=fixed;snapToPoint=1;resizable=0;metaEdit=1;points=[[0,0.5,0,0,0]];editable=1;movable=0;rotatable=1;deletable=1;locked=0;connectable=1;noLabel=0;overflow=visible;direction=east;" vertex="1" parent="E7xtdBU6p7a8pyWmshAc-17">
                        <mxGeometry x="-5" y="9" width="10" height="10" as="geometry"/>
                    </mxCell>
                </object>
                <object label="&lt;p style=&quot;line-height: 100%;&quot;&gt;&lt;br&gt;&lt;/p&gt;" type="inport" name="in2" id="E7xtdBU6p7a8pyWmshAc-20">
                    <mxCell style="whiteSpace=wrap;html=1;aspect=fixed;snapToPoint=1;resizable=0;metaEdit=1;points=[[0,0.5,0,0,0]];editable=1;movable=0;rotatable=1;deletable=1;locked=0;connectable=1;noLabel=0;overflow=visible;direction=east;" vertex="1" parent="E7xtdBU6p7a8pyWmshAc-17">
                        <mxGeometry x="-5" y="26" width="10" height="10" as="geometry"/>
                    </mxCell>
                </object>
                <object label="&lt;font style=&quot;font-size: 18px;&quot;&gt;/&lt;/font&gt;" block="Divide" type="block" name="" id="E7xtdBU6p7a8pyWmshAc-23">
                    <mxCell style="whiteSpace=wrap;html=1;aspect=fixed;fontSize=11;points=[[0,0.25,0,0,0],[0,0.75,0,0,0],[1,0.5,0,0,0]];metaEdit=1;snapToPoint=0;resizable=0;rotatable=0;allowArrows=0;container=1;collapsible=0;movable=1;connectable=0;" vertex="1" parent="1">
                        <mxGeometry x="420" y="170" width="40" height="40" as="geometry"/>
                    </mxCell>
                </object>
                <object label="&lt;p style=&quot;line-height: 100%;&quot;&gt;&lt;br&gt;&lt;/p&gt;" type="outport" name="out" id="E7xtdBU6p7a8pyWmshAc-24">
                    <mxCell style="whiteSpace=wrap;html=1;aspect=fixed;snapToPoint=1;resizable=0;metaEdit=1;points=[[1,0.5,0,0,0]];editable=1;movable=0;rotatable=1;deletable=1;locked=0;connectable=1;noLabel=0;overflow=visible;fillColor=#000000;" vertex="1" parent="E7xtdBU6p7a8pyWmshAc-23">
                        <mxGeometry x="35" y="15" width="10" height="10" as="geometry"/>
                    </mxCell>
                </object>
                <object label="&lt;p style=&quot;line-height: 100%;&quot;&gt;&lt;br&gt;&lt;/p&gt;" type="inport" name="in1" id="E7xtdBU6p7a8pyWmshAc-25">
                    <mxCell style="whiteSpace=wrap;html=1;aspect=fixed;snapToPoint=1;resizable=0;metaEdit=1;points=[[0,0.5,0,0,0]];editable=1;movable=0;rotatable=1;deletable=1;locked=0;connectable=1;noLabel=0;overflow=visible;direction=east;" vertex="1" parent="E7xtdBU6p7a8pyWmshAc-23">
                        <mxGeometry x="-5" y="5" width="10" height="10" as="geometry"/>
                    </mxCell>
                </object>
                <object label="&lt;p style=&quot;line-height: 100%;&quot;&gt;&lt;br&gt;&lt;/p&gt;" type="inport" name="in2" id="E7xtdBU6p7a8pyWmshAc-26">
                    <mxCell style="whiteSpace=wrap;html=1;aspect=fixed;snapToPoint=1;resizable=0;metaEdit=1;points=[[0,0.5,0,0,0]];editable=1;movable=0;rotatable=1;deletable=1;locked=0;connectable=1;noLabel=0;overflow=visible;direction=east;" vertex="1" parent="E7xtdBU6p7a8pyWmshAc-23">
                        <mxGeometry x="-5" y="25" width="10" height="10" as="geometry"/>
                    </mxCell>
                </object>
                <object label="&lt;font style=&quot;font-size: 11px;&quot;&gt;Constant&lt;/font&gt;" block="Constant" value="0" type="block" name="i_center_ENG" id="E7xtdBU6p7a8pyWmshAc-27">
                    <mxCell style="whiteSpace=wrap;html=1;fontSize=11;points=[[1,0.5,0,0,0]];metaEdit=1;snapToPoint=0;resizable=0;rotatable=0;allowArrows=0;container=1;resizeWidth=0;connectable=0;collapsible=0;movable=1;" vertex="1" parent="1">
                        <mxGeometry x="290" y="280" width="70" height="40" as="geometry"/>
                    </mxCell>
                </object>
                <object label="&lt;p style=&quot;line-height: 100%;&quot;&gt;&lt;br&gt;&lt;/p&gt;" type="outport" name="out" id="E7xtdBU6p7a8pyWmshAc-28">
                    <mxCell style="whiteSpace=wrap;html=1;aspect=fixed;snapToPoint=1;resizable=0;metaEdit=1;points=[[1,0.5,0,0,0]];editable=1;movable=0;rotatable=1;deletable=1;locked=0;connectable=1;noLabel=0;overflow=visible;fillColor=#000000;" vertex="1" parent="E7xtdBU6p7a8pyWmshAc-27">
                        <mxGeometry x="65.25" y="15" width="10" height="10" as="geometry"/>
                    </mxCell>
                </object>
                <mxCell id="E7xtdBU6p7a8pyWmshAc-29" style="edgeStyle=orthogonalEdgeStyle;html=1;exitX=1;exitY=0.5;exitDx=0;exitDy=0;exitPerimeter=0;entryX=0;entryY=0.5;entryDx=0;entryDy=0;entryPerimeter=0;" edge="1" parent="1" source="E7xtdBU6p7a8pyWmshAc-18" target="E7xtdBU6p7a8pyWmshAc-25">
                    <mxGeometry relative="1" as="geometry"/>
                </mxCell>
                <mxCell id="E7xtdBU6p7a8pyWmshAc-30" style="edgeStyle=orthogonalEdgeStyle;html=1;exitX=1;exitY=0.5;exitDx=0;exitDy=0;exitPerimeter=0;entryX=0;entryY=0.5;entryDx=0;entryDy=0;entryPerimeter=0;" edge="1" parent="1" source="E7xtdBU6p7a8pyWmshAc-28" target="E7xtdBU6p7a8pyWmshAc-26">
                    <mxGeometry relative="1" as="geometry"/>
                </mxCell>
                <mxCell id="E7xtdBU6p7a8pyWmshAc-31" style="edgeStyle=orthogonalEdgeStyle;html=1;exitX=1;exitY=0.5;exitDx=0;exitDy=0;exitPerimeter=0;entryX=0;entryY=0.5;entryDx=0;entryDy=0;entryPerimeter=0;" edge="1" parent="1" source="E7xtdBU6p7a8pyWmshAc-10" target="E7xtdBU6p7a8pyWmshAc-20">
                    <mxGeometry relative="1" as="geometry"/>
                </mxCell>
                <mxCell id="E7xtdBU6p7a8pyWmshAc-32" style="edgeStyle=orthogonalEdgeStyle;html=1;exitX=1;exitY=0.5;exitDx=0;exitDy=0;exitPerimeter=0;entryX=0;entryY=0.5;entryDx=0;entryDy=0;entryPerimeter=0;" edge="1" parent="1" source="E7xtdBU6p7a8pyWmshAc-6" target="E7xtdBU6p7a8pyWmshAc-19">
                    <mxGeometry relative="1" as="geometry"/>
                </mxCell>
                <mxCell id="E7xtdBU6p7a8pyWmshAc-33" style="edgeStyle=orthogonalEdgeStyle;html=1;exitX=1;exitY=0.5;exitDx=0;exitDy=0;exitPerimeter=0;entryX=0;entryY=0.5;entryDx=0;entryDy=0;entryPerimeter=0;" edge="1" parent="1" source="E7xtdBU6p7a8pyWmshAc-14" target="E7xtdBU6p7a8pyWmshAc-8">
                    <mxGeometry relative="1" as="geometry"/>
                </mxCell>
                <mxCell id="E7xtdBU6p7a8pyWmshAc-34" style="edgeStyle=orthogonalEdgeStyle;html=1;exitX=1;exitY=0.5;exitDx=0;exitDy=0;exitPerimeter=0;entryX=0;entryY=0.5;entryDx=0;entryDy=0;entryPerimeter=0;" edge="1" parent="1" source="E7xtdBU6p7a8pyWmshAc-2" target="E7xtdBU6p7a8pyWmshAc-7">
                    <mxGeometry relative="1" as="geometry"/>
                </mxCell>
                <mxCell id="E7xtdBU6p7a8pyWmshAc-35" style="edgeStyle=orthogonalEdgeStyle;html=1;exitX=1;exitY=0.5;exitDx=0;exitDy=0;exitPerimeter=0;entryX=0;entryY=0.5;entryDx=0;entryDy=0;entryPerimeter=0;" edge="1" parent="1" source="E7xtdBU6p7a8pyWmshAc-4" target="E7xtdBU6p7a8pyWmshAc-11">
                    <mxGeometry relative="1" as="geometry"/>
                </mxCell>
                <mxCell id="E7xtdBU6p7a8pyWmshAc-36" style="edgeStyle=orthogonalEdgeStyle;html=1;exitX=1;exitY=0.5;exitDx=0;exitDy=0;exitPerimeter=0;entryX=0;entryY=0.5;entryDx=0;entryDy=0;entryPerimeter=0;" edge="1" parent="1" source="E7xtdBU6p7a8pyWmshAc-16" target="E7xtdBU6p7a8pyWmshAc-12">
                    <mxGeometry relative="1" as="geometry"/>
                </mxCell>
                <object label="&lt;font style=&quot;font-size: 11px;&quot;&gt;1/s&lt;/font&gt;" block="Integrator" initialcondition="0" type="block" name="" id="E7xtdBU6p7a8pyWmshAc-37">
                    <mxCell style="whiteSpace=wrap;html=1;aspect=fixed;fontSize=11;points=[[0,0.5,0,0,0],[1,0.5,0,0,0]];metaEdit=1;snapToPoint=0;resizable=0;rotatable=0;allowArrows=0;container=1;collapsible=0;movable=1;connectable=0;" vertex="1" parent="1">
                        <mxGeometry x="500" y="170" width="40" height="40" as="geometry"/>
                    </mxCell>
                </object>
                <object label="&lt;p style=&quot;line-height: 100%;&quot;&gt;&lt;br&gt;&lt;/p&gt;" type="outport" name="out" id="E7xtdBU6p7a8pyWmshAc-38">
                    <mxCell style="whiteSpace=wrap;html=1;aspect=fixed;snapToPoint=1;resizable=0;metaEdit=1;points=[[1,0.5,0,0,0]];editable=1;movable=0;rotatable=1;deletable=1;locked=0;connectable=1;noLabel=0;overflow=visible;fillColor=#000000;" vertex="1" parent="E7xtdBU6p7a8pyWmshAc-37">
                        <mxGeometry x="35" y="15" width="10" height="10" as="geometry"/>
                    </mxCell>
                </object>
                <object label="&lt;p style=&quot;line-height: 100%;&quot;&gt;&lt;br&gt;&lt;/p&gt;" type="inport" name="in" id="E7xtdBU6p7a8pyWmshAc-39">
                    <mxCell style="whiteSpace=wrap;html=1;aspect=fixed;snapToPoint=1;resizable=0;metaEdit=1;points=[[0,0.5,0,0,0]];editable=1;movable=0;rotatable=1;deletable=1;locked=0;connectable=1;noLabel=0;overflow=visible;direction=east;" vertex="1" parent="E7xtdBU6p7a8pyWmshAc-37">
                        <mxGeometry x="-5" y="15" width="10" height="10" as="geometry"/>
                    </mxCell>
                </object>
                <mxCell id="E7xtdBU6p7a8pyWmshAc-40" style="edgeStyle=orthogonalEdgeStyle;html=1;exitX=1;exitY=0.5;exitDx=0;exitDy=0;exitPerimeter=0;entryX=0;entryY=0.5;entryDx=0;entryDy=0;entryPerimeter=0;" edge="1" parent="1" source="E7xtdBU6p7a8pyWmshAc-24" target="E7xtdBU6p7a8pyWmshAc-39">
                    <mxGeometry relative="1" as="geometry"/>
                </mxCell>
                <object label="&lt;font style=&quot;font-size: 11px;&quot;&gt;%name%&lt;/font&gt;" block="Outport" type="block" name="out1" placeholders="1" id="E7xtdBU6p7a8pyWmshAc-41">
                    <mxCell style="ellipse;whiteSpace=wrap;html=1;fontSize=18;points=[[0.02,0.5,0,0,0]];metaEdit=1;snapToPoint=0;resizable=0;rotatable=0;allowArrows=0;container=1;collapsible=0;spacingTop=-4;movable=1;connectable=0;" vertex="1" parent="1">
                        <mxGeometry x="590" y="175" width="50" height="30" as="geometry"/>
                    </mxCell>
                </object>
                <object label="&lt;p style=&quot;line-height: 100%;&quot;&gt;&lt;br&gt;&lt;/p&gt;" type="inport" name="in" id="E7xtdBU6p7a8pyWmshAc-42">
                    <mxCell style="whiteSpace=wrap;html=1;aspect=fixed;snapToPoint=1;resizable=0;metaEdit=1;points=[[0,0.5,0,0,0]];editable=1;movable=0;rotatable=1;deletable=1;locked=0;connectable=1;noLabel=0;overflow=visible;direction=east;" vertex="1" parent="E7xtdBU6p7a8pyWmshAc-41">
                        <mxGeometry x="-4" y="10" width="10" height="10" as="geometry"/>
                    </mxCell>
                </object>
                <mxCell id="E7xtdBU6p7a8pyWmshAc-43" style="edgeStyle=orthogonalEdgeStyle;html=1;exitX=1;exitY=0.5;exitDx=0;exitDy=0;exitPerimeter=0;entryX=0;entryY=0.5;entryDx=0;entryDy=0;entryPerimeter=0;" edge="1" parent="1" source="E7xtdBU6p7a8pyWmshAc-38" target="E7xtdBU6p7a8pyWmshAc-42">
                    <mxGeometry relative="1" as="geometry"/>
                </mxCell>
                <mxCell id="E7xtdBU6p7a8pyWmshAc-44" value="F_ENG_MNT_F2ENG_N" style="text;strokeColor=none;align=center;fillColor=none;html=1;verticalAlign=middle;whiteSpace=wrap;rounded=0;resizable=0;connectable=0;allowArrows=0;" vertex="1" parent="1">
                    <mxGeometry x="55" y="160" width="60" height="30" as="geometry"/>
                </mxCell>
                <mxCell id="E7xtdBU6p7a8pyWmshAc-45" value="F_ENG_MNT_R2ENG_N" style="text;strokeColor=none;align=center;fillColor=none;html=1;verticalAlign=middle;whiteSpace=wrap;rounded=0;resizable=0;connectable=0;allowArrows=0;" vertex="1" parent="1">
                    <mxGeometry x="55" y="270" width="60" height="30" as="geometry"/>
                </mxCell>
                <mxCell id="E7xtdBU6p7a8pyWmshAc-46" value="omg_ENG_pitch_rate_radps" style="text;strokeColor=none;align=center;fillColor=none;html=1;verticalAlign=middle;whiteSpace=wrap;rounded=0;resizable=0;connectable=0;allowArrows=0;" vertex="1" parent="1">
                    <mxGeometry x="590" y="205" width="60" height="30" as="geometry"/>
                </mxCell>
            </root>
        </mxGraphModel>
    </diagram>
    <diagram id="BfrIXrFJQdTRdFI2xvEo" name="v_z_carbody">
        <mxGraphModel dx="781" dy="551" grid="1" gridSize="10" guides="1" tooltips="1" connect="1" arrows="1" fold="1" page="1" pageScale="1" pageWidth="827" pageHeight="1169" math="0" shadow="0">
            <root>
                <mxCell id="0"/>
                <mxCell id="1" parent="0"/>
                <object label="&lt;font style=&quot;font-size: 11px;&quot;&gt;%name%&lt;/font&gt;" block="Inport" type="block" name="in1" placeholders="1" id="5Ces3yuAy2VlBYfOtgMm-1">
                    <mxCell style="ellipse;whiteSpace=wrap;html=1;fontSize=18;points=[[1,0.5,0,0,0]];metaEdit=1;snapToPoint=0;resizable=0;rotatable=0;allowArrows=0;container=1;collapsible=0;spacingTop=-5;movable=1;connectable=0;" vertex="1" parent="1">
                        <mxGeometry x="109.99999999999989" y="120" width="50" height="30" as="geometry"/>
                    </mxCell>
                </object>
                <object label="&lt;p style=&quot;line-height: 100%;&quot;&gt;&lt;br&gt;&lt;/p&gt;" type="outport" name="out" id="5Ces3yuAy2VlBYfOtgMm-2">
                    <mxCell style="whiteSpace=wrap;html=1;aspect=fixed;snapToPoint=1;resizable=0;metaEdit=1;points=[[1,0.5,0,0,0]];editable=1;movable=0;rotatable=1;deletable=1;locked=0;connectable=1;noLabel=0;overflow=visible;fillColor=#000000;" vertex="1" parent="5Ces3yuAy2VlBYfOtgMm-1">
                        <mxGeometry x="45" y="10" width="10" height="10" as="geometry"/>
                    </mxCell>
                </object>
                <object label="&lt;font style=&quot;font-size: 11px;&quot;&gt;%name%&lt;/font&gt;" block="Inport" type="block" name="in2" placeholders="1" id="5Ces3yuAy2VlBYfOtgMm-3">
                    <mxCell style="ellipse;whiteSpace=wrap;html=1;fontSize=18;points=[[1,0.5,0,0,0]];metaEdit=1;snapToPoint=0;resizable=0;rotatable=0;allowArrows=0;container=1;collapsible=0;spacingTop=-5;movable=1;connectable=0;" vertex="1" parent="1">
                        <mxGeometry x="109.99999999999989" y="190" width="50" height="30" as="geometry"/>
                    </mxCell>
                </object>
                <object label="&lt;p style=&quot;line-height: 100%;&quot;&gt;&lt;br&gt;&lt;/p&gt;" type="outport" name="out" id="5Ces3yuAy2VlBYfOtgMm-4">
                    <mxCell style="whiteSpace=wrap;html=1;aspect=fixed;snapToPoint=1;resizable=0;metaEdit=1;points=[[1,0.5,0,0,0]];editable=1;movable=0;rotatable=1;deletable=1;locked=0;connectable=1;noLabel=0;overflow=visible;fillColor=#000000;" vertex="1" parent="5Ces3yuAy2VlBYfOtgMm-3">
                        <mxGeometry x="45" y="10" width="10" height="10" as="geometry"/>
                    </mxCell>
                </object>
                <object label="&lt;font style=&quot;font-size: 11px;&quot;&gt;Constant&lt;/font&gt;" block="Constant" value="g" type="block" name="" id="5Ces3yuAy2VlBYfOtgMm-5">
                    <mxCell style="whiteSpace=wrap;html=1;fontSize=11;points=[[1,0.5,0,0,0]];metaEdit=1;snapToPoint=0;resizable=0;rotatable=0;allowArrows=0;container=1;resizeWidth=0;connectable=0;collapsible=0;movable=1;" vertex="1" parent="1">
                        <mxGeometry x="120" y="280" width="70" height="40" as="geometry"/>
                    </mxCell>
                </object>
                <object label="&lt;p style=&quot;line-height: 100%;&quot;&gt;&lt;br&gt;&lt;/p&gt;" type="outport" name="out" id="5Ces3yuAy2VlBYfOtgMm-6">
                    <mxCell style="whiteSpace=wrap;html=1;aspect=fixed;snapToPoint=1;resizable=0;metaEdit=1;points=[[1,0.5,0,0,0]];editable=1;movable=0;rotatable=1;deletable=1;locked=0;connectable=1;noLabel=0;overflow=visible;fillColor=#000000;" vertex="1" parent="5Ces3yuAy2VlBYfOtgMm-5">
                        <mxGeometry x="65.25" y="15" width="10" height="10" as="geometry"/>
                    </mxCell>
                </object>
                <object label="&lt;font style=&quot;font-size: 11px;&quot;&gt;Constant&lt;/font&gt;" block="Constant" value="M_ENG" type="block" name="" id="5Ces3yuAy2VlBYfOtgMm-7">
                    <mxCell style="whiteSpace=wrap;html=1;fontSize=11;points=[[1,0.5,0,0,0]];metaEdit=1;snapToPoint=0;resizable=0;rotatable=0;allowArrows=0;container=1;resizeWidth=0;connectable=0;collapsible=0;movable=1;" vertex="1" parent="1">
                        <mxGeometry x="120" y="350" width="70" height="40" as="geometry"/>
                    </mxCell>
                </object>
                <object label="&lt;p style=&quot;line-height: 100%;&quot;&gt;&lt;br&gt;&lt;/p&gt;" type="outport" name="out" id="5Ces3yuAy2VlBYfOtgMm-8">
                    <mxCell style="whiteSpace=wrap;html=1;aspect=fixed;snapToPoint=1;resizable=0;metaEdit=1;points=[[1,0.5,0,0,0]];editable=1;movable=0;rotatable=1;deletable=1;locked=0;connectable=1;noLabel=0;overflow=visible;fillColor=#000000;" vertex="1" parent="5Ces3yuAy2VlBYfOtgMm-7">
                        <mxGeometry x="65.25" y="15" width="10" height="10" as="geometry"/>
                    </mxCell>
                </object>
                <object label="&lt;p&gt;&lt;font style=&quot;font-size: 22px;&quot;&gt;*&lt;/font&gt;&lt;/p&gt;" block="Product" type="block" name="" id="5Ces3yuAy2VlBYfOtgMm-9">
                    <mxCell style="whiteSpace=wrap;html=1;aspect=fixed;fontSize=11;points=[[0,0.25,0,0,0],[0,0.75,0,0,0],[1,0.5,0,0,0]];metaEdit=1;snapToPoint=0;resizable=0;rotatable=0;allowArrows=0;container=1;collapsible=0;spacingBottom=-7;movable=1;connectable=0;" vertex="1" parent="1">
                        <mxGeometry x="240" y="310" width="40" height="40" as="geometry"/>
                    </mxCell>
                </object>
                <object label="&lt;p style=&quot;line-height: 100%;&quot;&gt;&lt;br&gt;&lt;/p&gt;" type="outport" name="out" id="5Ces3yuAy2VlBYfOtgMm-10">
                    <mxCell style="whiteSpace=wrap;html=1;aspect=fixed;snapToPoint=1;resizable=0;metaEdit=1;points=[[1,0.5,0,0,0]];editable=1;movable=0;rotatable=1;deletable=1;locked=0;connectable=1;noLabel=0;overflow=visible;fillColor=#000000;" vertex="1" parent="5Ces3yuAy2VlBYfOtgMm-9">
                        <mxGeometry x="35" y="15" width="10" height="10" as="geometry"/>
                    </mxCell>
                </object>
                <object label="&lt;p style=&quot;line-height: 100%;&quot;&gt;&lt;br&gt;&lt;/p&gt;" type="inport" name="in1" id="5Ces3yuAy2VlBYfOtgMm-11">
                    <mxCell style="whiteSpace=wrap;html=1;aspect=fixed;snapToPoint=1;resizable=0;metaEdit=1;points=[[0,0.5,0,0,0]];editable=1;movable=0;rotatable=1;deletable=1;locked=0;connectable=1;noLabel=0;overflow=visible;direction=east;" vertex="1" parent="5Ces3yuAy2VlBYfOtgMm-9">
                        <mxGeometry x="-5" y="5" width="10" height="10" as="geometry"/>
                    </mxCell>
                </object>
                <object label="&lt;p style=&quot;line-height: 100%;&quot;&gt;&lt;br&gt;&lt;/p&gt;" type="inport" name="in2" id="5Ces3yuAy2VlBYfOtgMm-12">
                    <mxCell style="whiteSpace=wrap;html=1;aspect=fixed;snapToPoint=1;resizable=0;metaEdit=1;points=[[0,0.5,0,0,0]];editable=1;movable=0;rotatable=1;deletable=1;locked=0;connectable=1;noLabel=0;overflow=visible;direction=east;" vertex="1" parent="5Ces3yuAy2VlBYfOtgMm-9">
                        <mxGeometry x="-5" y="25" width="10" height="10" as="geometry"/>
                    </mxCell>
                </object>
                <object label="&lt;font style=&quot;font-size: 18px;&quot;&gt;/&lt;/font&gt;" block="Divide" type="block" name="" id="5Ces3yuAy2VlBYfOtgMm-13">
                    <mxCell style="whiteSpace=wrap;html=1;aspect=fixed;fontSize=11;points=[[0,0.25,0,0,0],[0,0.75,0,0,0],[1,0.5,0,0,0]];metaEdit=1;snapToPoint=0;resizable=0;rotatable=0;allowArrows=0;container=1;collapsible=0;movable=1;connectable=0;" vertex="1" parent="1">
                        <mxGeometry x="440" y="270" width="40" height="40" as="geometry"/>
                    </mxCell>
                </object>
                <object label="&lt;p style=&quot;line-height: 100%;&quot;&gt;&lt;br&gt;&lt;/p&gt;" type="outport" name="out" id="5Ces3yuAy2VlBYfOtgMm-14">
                    <mxCell style="whiteSpace=wrap;html=1;aspect=fixed;snapToPoint=1;resizable=0;metaEdit=1;points=[[1,0.5,0,0,0]];editable=1;movable=0;rotatable=1;deletable=1;locked=0;connectable=1;noLabel=0;overflow=visible;fillColor=#000000;" vertex="1" parent="5Ces3yuAy2VlBYfOtgMm-13">
                        <mxGeometry x="35" y="15" width="10" height="10" as="geometry"/>
                    </mxCell>
                </object>
                <object label="&lt;p style=&quot;line-height: 100%;&quot;&gt;&lt;br&gt;&lt;/p&gt;" type="inport" name="in1" id="5Ces3yuAy2VlBYfOtgMm-15">
                    <mxCell style="whiteSpace=wrap;html=1;aspect=fixed;snapToPoint=1;resizable=0;metaEdit=1;points=[[0,0.5,0,0,0]];editable=1;movable=0;rotatable=1;deletable=1;locked=0;connectable=1;noLabel=0;overflow=visible;direction=east;" vertex="1" parent="5Ces3yuAy2VlBYfOtgMm-13">
                        <mxGeometry x="-5" y="5" width="10" height="10" as="geometry"/>
                    </mxCell>
                </object>
                <object label="&lt;p style=&quot;line-height: 100%;&quot;&gt;&lt;br&gt;&lt;/p&gt;" type="inport" name="in2" id="5Ces3yuAy2VlBYfOtgMm-16">
                    <mxCell style="whiteSpace=wrap;html=1;aspect=fixed;snapToPoint=1;resizable=0;metaEdit=1;points=[[0,0.5,0,0,0]];editable=1;movable=0;rotatable=1;deletable=1;locked=0;connectable=1;noLabel=0;overflow=visible;direction=east;" vertex="1" parent="5Ces3yuAy2VlBYfOtgMm-13">
                        <mxGeometry x="-5" y="25" width="10" height="10" as="geometry"/>
                    </mxCell>
                </object>
                <object label="Add" block="Add" signs="[:+, :+, :-]" type="block" name="" id="5Ces3yuAy2VlBYfOtgMm-17">
                    <mxCell style="rounded=0;whiteSpace=wrap;html=1;fontSize=11;points=[[0,0.24,0,0,0],[0,0.76,0,0,0],[1,0.5,0,0,0]];metaEdit=1;snapToPoint=0;allowArrows=0;resizable=0;container=1;collapsible=0;movable=1;connectable=0;" vertex="1" parent="1">
                        <mxGeometry x="320" y="150" width="40" height="80" as="geometry"/>
                    </mxCell>
                </object>
                <object label="&lt;p style=&quot;line-height: 100%;&quot;&gt;&lt;br&gt;&lt;/p&gt;" type="outport" name="out" id="5Ces3yuAy2VlBYfOtgMm-18">
                    <mxCell style="whiteSpace=wrap;html=1;aspect=fixed;snapToPoint=1;resizable=0;metaEdit=1;points=[[1,0.5,0,0,0]];editable=1;movable=0;rotatable=1;deletable=1;locked=0;connectable=1;noLabel=0;overflow=visible;fillColor=#000000;" vertex="1" parent="5Ces3yuAy2VlBYfOtgMm-17">
                        <mxGeometry x="35" y="34.285714285714285" width="10" height="10" as="geometry"/>
                    </mxCell>
                </object>
                <object label="&lt;p style=&quot;line-height: 100%;&quot;&gt;&lt;br&gt;&lt;/p&gt;" type="inport" name="in1" id="5Ces3yuAy2VlBYfOtgMm-19">
                    <mxCell style="whiteSpace=wrap;html=1;aspect=fixed;snapToPoint=1;resizable=0;metaEdit=1;points=[[0,0.5,0,0,0]];editable=1;movable=0;rotatable=1;deletable=1;locked=0;connectable=1;noLabel=0;overflow=visible;direction=east;" vertex="1" parent="5Ces3yuAy2VlBYfOtgMm-17">
                        <mxGeometry x="-5" y="9" width="10" height="10" as="geometry"/>
                    </mxCell>
                </object>
                <object label="&lt;p style=&quot;line-height: 100%;&quot;&gt;&lt;br&gt;&lt;/p&gt;" type="inport" name="in2" id="5Ces3yuAy2VlBYfOtgMm-20">
                    <mxCell style="whiteSpace=wrap;html=1;aspect=fixed;snapToPoint=1;resizable=0;metaEdit=1;points=[[0,0.5,0,0,0]];editable=1;movable=0;rotatable=1;deletable=1;locked=0;connectable=1;noLabel=0;overflow=visible;direction=east;" vertex="1" parent="5Ces3yuAy2VlBYfOtgMm-17">
                        <mxGeometry x="-5" y="26" width="10" height="10" as="geometry"/>
                    </mxCell>
                </object>
                <object label="&lt;p style=&quot;line-height: 100%;&quot;&gt;&lt;br&gt;&lt;/p&gt;" type="inport" name="in3" id="5Ces3yuAy2VlBYfOtgMm-21">
                    <mxCell style="whiteSpace=wrap;html=1;aspect=fixed;snapToPoint=1;resizable=0;metaEdit=1;points=[[0,0.5,0,0,0]];editable=1;movable=0;rotatable=1;deletable=1;locked=0;connectable=1;noLabel=0;overflow=visible;direction=east;" vertex="1" parent="5Ces3yuAy2VlBYfOtgMm-17">
                        <mxGeometry x="-5" y="43" width="10" height="10" as="geometry"/>
                    </mxCell>
                </object>
                <mxCell id="5Ces3yuAy2VlBYfOtgMm-23" style="edgeStyle=orthogonalEdgeStyle;html=1;exitX=1;exitY=0.5;exitDx=0;exitDy=0;exitPerimeter=0;entryX=0;entryY=0.5;entryDx=0;entryDy=0;entryPerimeter=0;" edge="1" parent="1" source="5Ces3yuAy2VlBYfOtgMm-6" target="5Ces3yuAy2VlBYfOtgMm-11">
                    <mxGeometry relative="1" as="geometry"/>
                </mxCell>
                <mxCell id="5Ces3yuAy2VlBYfOtgMm-24" style="edgeStyle=orthogonalEdgeStyle;html=1;exitX=1;exitY=0.5;exitDx=0;exitDy=0;exitPerimeter=0;entryX=0;entryY=0.5;entryDx=0;entryDy=0;entryPerimeter=0;" edge="1" parent="1" source="5Ces3yuAy2VlBYfOtgMm-8" target="5Ces3yuAy2VlBYfOtgMm-12">
                    <mxGeometry relative="1" as="geometry"/>
                </mxCell>
                <mxCell id="5Ces3yuAy2VlBYfOtgMm-25" style="edgeStyle=orthogonalEdgeStyle;html=1;exitX=1;exitY=0.5;exitDx=0;exitDy=0;exitPerimeter=0;entryX=0;entryY=0.5;entryDx=0;entryDy=0;entryPerimeter=0;" edge="1" parent="1" source="5Ces3yuAy2VlBYfOtgMm-10" target="5Ces3yuAy2VlBYfOtgMm-21">
                    <mxGeometry relative="1" as="geometry"/>
                </mxCell>
                <mxCell id="5Ces3yuAy2VlBYfOtgMm-26" style="edgeStyle=orthogonalEdgeStyle;html=1;exitX=1;exitY=0.5;exitDx=0;exitDy=0;exitPerimeter=0;entryX=0;entryY=0.5;entryDx=0;entryDy=0;entryPerimeter=0;" edge="1" parent="1" source="5Ces3yuAy2VlBYfOtgMm-4" target="5Ces3yuAy2VlBYfOtgMm-20">
                    <mxGeometry relative="1" as="geometry"/>
                </mxCell>
                <mxCell id="5Ces3yuAy2VlBYfOtgMm-27" style="edgeStyle=orthogonalEdgeStyle;html=1;exitX=1;exitY=0.5;exitDx=0;exitDy=0;exitPerimeter=0;entryX=0;entryY=0.5;entryDx=0;entryDy=0;entryPerimeter=0;" edge="1" parent="1" source="5Ces3yuAy2VlBYfOtgMm-2" target="5Ces3yuAy2VlBYfOtgMm-19">
                    <mxGeometry relative="1" as="geometry"/>
                </mxCell>
                <mxCell id="5Ces3yuAy2VlBYfOtgMm-28" style="edgeStyle=orthogonalEdgeStyle;html=1;exitX=1;exitY=0.5;exitDx=0;exitDy=0;exitPerimeter=0;entryX=0;entryY=0.5;entryDx=0;entryDy=0;entryPerimeter=0;" edge="1" parent="1" source="5Ces3yuAy2VlBYfOtgMm-18" target="5Ces3yuAy2VlBYfOtgMm-15">
                    <mxGeometry relative="1" as="geometry"/>
                </mxCell>
                <mxCell id="5Ces3yuAy2VlBYfOtgMm-30" style="edgeStyle=orthogonalEdgeStyle;html=1;exitX=1;exitY=0.5;exitDx=0;exitDy=0;exitPerimeter=0;entryX=0;entryY=0.5;entryDx=0;entryDy=0;entryPerimeter=0;" edge="1" parent="1" source="5Ces3yuAy2VlBYfOtgMm-8" target="5Ces3yuAy2VlBYfOtgMm-16">
                    <mxGeometry relative="1" as="geometry"/>
                </mxCell>
                <object label="&lt;font style=&quot;font-size: 11px;&quot;&gt;1/s&lt;/font&gt;" block="Integrator" initialcondition="0" type="block" name="" id="5Ces3yuAy2VlBYfOtgMm-31">
                    <mxCell style="whiteSpace=wrap;html=1;aspect=fixed;fontSize=11;points=[[0,0.5,0,0,0],[1,0.5,0,0,0]];metaEdit=1;snapToPoint=0;resizable=0;rotatable=0;allowArrows=0;container=1;collapsible=0;movable=1;connectable=0;" vertex="1" parent="1">
                        <mxGeometry x="520" y="270" width="40" height="40" as="geometry"/>
                    </mxCell>
                </object>
                <object label="&lt;p style=&quot;line-height: 100%;&quot;&gt;&lt;br&gt;&lt;/p&gt;" type="outport" name="out" id="5Ces3yuAy2VlBYfOtgMm-32">
                    <mxCell style="whiteSpace=wrap;html=1;aspect=fixed;snapToPoint=1;resizable=0;metaEdit=1;points=[[1,0.5,0,0,0]];editable=1;movable=0;rotatable=1;deletable=1;locked=0;connectable=1;noLabel=0;overflow=visible;fillColor=#000000;" vertex="1" parent="5Ces3yuAy2VlBYfOtgMm-31">
                        <mxGeometry x="35" y="15" width="10" height="10" as="geometry"/>
                    </mxCell>
                </object>
                <object label="&lt;p style=&quot;line-height: 100%;&quot;&gt;&lt;br&gt;&lt;/p&gt;" type="inport" name="in" id="5Ces3yuAy2VlBYfOtgMm-33">
                    <mxCell style="whiteSpace=wrap;html=1;aspect=fixed;snapToPoint=1;resizable=0;metaEdit=1;points=[[0,0.5,0,0,0]];editable=1;movable=0;rotatable=1;deletable=1;locked=0;connectable=1;noLabel=0;overflow=visible;direction=east;" vertex="1" parent="5Ces3yuAy2VlBYfOtgMm-31">
                        <mxGeometry x="-5" y="15" width="10" height="10" as="geometry"/>
                    </mxCell>
                </object>
                <mxCell id="5Ces3yuAy2VlBYfOtgMm-34" style="edgeStyle=orthogonalEdgeStyle;html=1;exitX=1;exitY=0.5;exitDx=0;exitDy=0;exitPerimeter=0;entryX=0;entryY=0.5;entryDx=0;entryDy=0;entryPerimeter=0;" edge="1" parent="1" source="5Ces3yuAy2VlBYfOtgMm-14" target="5Ces3yuAy2VlBYfOtgMm-33">
                    <mxGeometry relative="1" as="geometry"/>
                </mxCell>
                <object label="&lt;font style=&quot;font-size: 11px;&quot;&gt;%name%&lt;/font&gt;" block="Outport" type="block" name="out1" placeholders="1" id="5Ces3yuAy2VlBYfOtgMm-35">
                    <mxCell style="ellipse;whiteSpace=wrap;html=1;fontSize=18;points=[[0.02,0.5,0,0,0]];metaEdit=1;snapToPoint=0;resizable=0;rotatable=0;allowArrows=0;container=1;collapsible=0;spacingTop=-4;movable=1;connectable=0;" vertex="1" parent="1">
                        <mxGeometry x="600" y="275" width="50" height="30" as="geometry"/>
                    </mxCell>
                </object>
                <object label="&lt;p style=&quot;line-height: 100%;&quot;&gt;&lt;br&gt;&lt;/p&gt;" type="inport" name="in" id="5Ces3yuAy2VlBYfOtgMm-36">
                    <mxCell style="whiteSpace=wrap;html=1;aspect=fixed;snapToPoint=1;resizable=0;metaEdit=1;points=[[0,0.5,0,0,0]];editable=1;movable=0;rotatable=1;deletable=1;locked=0;connectable=1;noLabel=0;overflow=visible;direction=east;" vertex="1" parent="5Ces3yuAy2VlBYfOtgMm-35">
                        <mxGeometry x="-4" y="10" width="10" height="10" as="geometry"/>
                    </mxCell>
                </object>
                <mxCell id="5Ces3yuAy2VlBYfOtgMm-37" style="edgeStyle=orthogonalEdgeStyle;html=1;exitX=1;exitY=0.5;exitDx=0;exitDy=0;exitPerimeter=0;entryX=0;entryY=0.5;entryDx=0;entryDy=0;entryPerimeter=0;" edge="1" parent="1" source="5Ces3yuAy2VlBYfOtgMm-32" target="5Ces3yuAy2VlBYfOtgMm-36">
                    <mxGeometry relative="1" as="geometry"/>
                </mxCell>
                <mxCell id="5Ces3yuAy2VlBYfOtgMm-38" value="v_ENG_mps" style="text;strokeColor=none;align=center;fillColor=none;html=1;verticalAlign=middle;whiteSpace=wrap;rounded=0;resizable=0;connectable=0;allowArrows=0;" vertex="1" parent="1">
                    <mxGeometry x="595" y="310" width="60" height="30" as="geometry"/>
                </mxCell>
                <mxCell id="5Ces3yuAy2VlBYfOtgMm-39" value="F_ENG_MNT_F2ENG_N" style="text;strokeColor=none;align=center;fillColor=none;html=1;verticalAlign=middle;whiteSpace=wrap;rounded=0;resizable=0;connectable=0;allowArrows=0;" vertex="1" parent="1">
                    <mxGeometry x="105" y="150" width="60" height="30" as="geometry"/>
                </mxCell>
                <mxCell id="5Ces3yuAy2VlBYfOtgMm-40" value="F_ENG_MNT_R2ENG_N" style="text;strokeColor=none;align=center;fillColor=none;html=1;verticalAlign=middle;whiteSpace=wrap;rounded=0;resizable=0;connectable=0;allowArrows=0;" vertex="1" parent="1">
                    <mxGeometry x="105" y="220" width="60" height="30" as="geometry"/>
                </mxCell>
            </root>
        </mxGraphModel>
    </diagram>
    <diagram id="dOcataT7PMeKotpHfVOh" name="z_velocity">
        <mxGraphModel dx="781" dy="551" grid="1" gridSize="10" guides="1" tooltips="1" connect="1" arrows="1" fold="1" page="1" pageScale="1" pageWidth="827" pageHeight="1169" math="0" shadow="0">
            <root>
                <mxCell id="0"/>
                <mxCell id="1" parent="0"/>
                <object label="&lt;font style=&quot;font-size: 11px;&quot;&gt;%name%&lt;/font&gt;" block="Inport" type="block" name="in1" placeholders="1" id="ifyeWFtGdhOIHdgQRf9h-1">
                    <mxCell style="ellipse;whiteSpace=wrap;html=1;fontSize=18;points=[[1,0.5,0,0,0]];metaEdit=1;snapToPoint=0;resizable=0;rotatable=0;allowArrows=0;container=1;collapsible=0;spacingTop=-5;movable=1;connectable=0;" vertex="1" parent="1">
                        <mxGeometry x="79.99999999999989" y="50" width="50" height="30" as="geometry"/>
                    </mxCell>
                </object>
                <object label="&lt;p style=&quot;line-height: 100%;&quot;&gt;&lt;br&gt;&lt;/p&gt;" type="outport" name="out" id="ifyeWFtGdhOIHdgQRf9h-2">
                    <mxCell style="whiteSpace=wrap;html=1;aspect=fixed;snapToPoint=1;resizable=0;metaEdit=1;points=[[1,0.5,0,0,0]];editable=1;movable=0;rotatable=1;deletable=1;locked=0;connectable=1;noLabel=0;overflow=visible;fillColor=#000000;" vertex="1" parent="ifyeWFtGdhOIHdgQRf9h-1">
                        <mxGeometry x="45" y="10" width="10" height="10" as="geometry"/>
                    </mxCell>
                </object>
                <object label="&lt;font style=&quot;font-size: 11px;&quot;&gt;%name%&lt;/font&gt;" block="Inport" type="block" name="in2" placeholders="1" id="ifyeWFtGdhOIHdgQRf9h-3">
                    <mxCell style="ellipse;whiteSpace=wrap;html=1;fontSize=18;points=[[1,0.5,0,0,0]];metaEdit=1;snapToPoint=0;resizable=0;rotatable=0;allowArrows=0;container=1;collapsible=0;spacingTop=-5;movable=1;connectable=0;" vertex="1" parent="1">
                        <mxGeometry x="79.99999999999989" y="210" width="50" height="30" as="geometry"/>
                    </mxCell>
                </object>
                <object label="&lt;p style=&quot;line-height: 100%;&quot;&gt;&lt;br&gt;&lt;/p&gt;" type="outport" name="out" id="ifyeWFtGdhOIHdgQRf9h-4">
                    <mxCell style="whiteSpace=wrap;html=1;aspect=fixed;snapToPoint=1;resizable=0;metaEdit=1;points=[[1,0.5,0,0,0]];editable=1;movable=0;rotatable=1;deletable=1;locked=0;connectable=1;noLabel=0;overflow=visible;fillColor=#000000;" vertex="1" parent="ifyeWFtGdhOIHdgQRf9h-3">
                        <mxGeometry x="45" y="10" width="10" height="10" as="geometry"/>
                    </mxCell>
                </object>
                <object label="Add" block="Add" signs="[:+, :+]" type="block" name="" id="ifyeWFtGdhOIHdgQRf9h-5">
                    <mxCell style="rounded=0;whiteSpace=wrap;html=1;fontSize=11;points=[[0,0.24,0,0,0],[0,0.76,0,0,0],[1,0.5,0,0,0]];metaEdit=1;snapToPoint=0;allowArrows=0;resizable=0;container=1;collapsible=0;movable=1;connectable=0;" vertex="1" parent="1">
                        <mxGeometry x="460" y="50" width="40" height="80" as="geometry"/>
                    </mxCell>
                </object>
                <object label="&lt;p style=&quot;line-height: 100%;&quot;&gt;&lt;br&gt;&lt;/p&gt;" type="outport" name="out" id="ifyeWFtGdhOIHdgQRf9h-6">
                    <mxCell style="whiteSpace=wrap;html=1;aspect=fixed;snapToPoint=1;resizable=0;metaEdit=1;points=[[1,0.5,0,0,0]];editable=1;movable=0;rotatable=1;deletable=1;locked=0;connectable=1;noLabel=0;overflow=visible;fillColor=#000000;" vertex="1" parent="ifyeWFtGdhOIHdgQRf9h-5">
                        <mxGeometry x="35" y="34.285714285714285" width="10" height="10" as="geometry"/>
                    </mxCell>
                </object>
                <object label="&lt;p style=&quot;line-height: 100%;&quot;&gt;&lt;br&gt;&lt;/p&gt;" type="inport" name="in1" id="ifyeWFtGdhOIHdgQRf9h-7">
                    <mxCell style="whiteSpace=wrap;html=1;aspect=fixed;snapToPoint=1;resizable=0;metaEdit=1;points=[[0,0.5,0,0,0]];editable=1;movable=0;rotatable=1;deletable=1;locked=0;connectable=1;noLabel=0;overflow=visible;direction=east;" vertex="1" parent="ifyeWFtGdhOIHdgQRf9h-5">
                        <mxGeometry x="-5" y="9" width="10" height="10" as="geometry"/>
                    </mxCell>
                </object>
                <object label="&lt;p style=&quot;line-height: 100%;&quot;&gt;&lt;br&gt;&lt;/p&gt;" type="inport" name="in2" id="ifyeWFtGdhOIHdgQRf9h-8">
                    <mxCell style="whiteSpace=wrap;html=1;aspect=fixed;snapToPoint=1;resizable=0;metaEdit=1;points=[[0,0.5,0,0,0]];editable=1;movable=0;rotatable=1;deletable=1;locked=0;connectable=1;noLabel=0;overflow=visible;direction=east;" vertex="1" parent="ifyeWFtGdhOIHdgQRf9h-5">
                        <mxGeometry x="-5" y="26" width="10" height="10" as="geometry"/>
                    </mxCell>
                </object>
                <object label="Add" block="Add" signs="[:+, :+]" type="block" name="" id="ifyeWFtGdhOIHdgQRf9h-11">
                    <mxCell style="rounded=0;whiteSpace=wrap;html=1;fontSize=11;points=[[0,0.24,0,0,0],[0,0.76,0,0,0],[1,0.5,0,0,0]];metaEdit=1;snapToPoint=0;allowArrows=0;resizable=0;container=1;collapsible=0;movable=1;connectable=0;" vertex="1" parent="1">
                        <mxGeometry x="470" y="200" width="40" height="80" as="geometry"/>
                    </mxCell>
                </object>
                <object label="&lt;p style=&quot;line-height: 100%;&quot;&gt;&lt;br&gt;&lt;/p&gt;" type="outport" name="out" id="ifyeWFtGdhOIHdgQRf9h-12">
                    <mxCell style="whiteSpace=wrap;html=1;aspect=fixed;snapToPoint=1;resizable=0;metaEdit=1;points=[[1,0.5,0,0,0]];editable=1;movable=0;rotatable=1;deletable=1;locked=0;connectable=1;noLabel=0;overflow=visible;fillColor=#000000;" vertex="1" parent="ifyeWFtGdhOIHdgQRf9h-11">
                        <mxGeometry x="35" y="34.285714285714285" width="10" height="10" as="geometry"/>
                    </mxCell>
                </object>
                <object label="&lt;p style=&quot;line-height: 100%;&quot;&gt;&lt;br&gt;&lt;/p&gt;" type="inport" name="in1" id="ifyeWFtGdhOIHdgQRf9h-13">
                    <mxCell style="whiteSpace=wrap;html=1;aspect=fixed;snapToPoint=1;resizable=0;metaEdit=1;points=[[0,0.5,0,0,0]];editable=1;movable=0;rotatable=1;deletable=1;locked=0;connectable=1;noLabel=0;overflow=visible;direction=east;" vertex="1" parent="ifyeWFtGdhOIHdgQRf9h-11">
                        <mxGeometry x="-5" y="9" width="10" height="10" as="geometry"/>
                    </mxCell>
                </object>
                <object label="&lt;p style=&quot;line-height: 100%;&quot;&gt;&lt;br&gt;&lt;/p&gt;" type="inport" name="in2" id="ifyeWFtGdhOIHdgQRf9h-14">
                    <mxCell style="whiteSpace=wrap;html=1;aspect=fixed;snapToPoint=1;resizable=0;metaEdit=1;points=[[0,0.5,0,0,0]];editable=1;movable=0;rotatable=1;deletable=1;locked=0;connectable=1;noLabel=0;overflow=visible;direction=east;" vertex="1" parent="ifyeWFtGdhOIHdgQRf9h-11">
                        <mxGeometry x="-5" y="26" width="10" height="10" as="geometry"/>
                    </mxCell>
                </object>
                <object label="&lt;font style=&quot;font-size: 11px;&quot;&gt;%name%&lt;/font&gt;" block="Outport" type="block" name="out1" placeholders="1" id="ifyeWFtGdhOIHdgQRf9h-15">
                    <mxCell style="ellipse;whiteSpace=wrap;html=1;fontSize=18;points=[[0.02,0.5,0,0,0]];metaEdit=1;snapToPoint=0;resizable=0;rotatable=0;allowArrows=0;container=1;collapsible=0;spacingTop=-4;movable=1;connectable=0;" vertex="1" parent="1">
                        <mxGeometry x="580" y="145" width="50" height="30" as="geometry"/>
                    </mxCell>
                </object>
                <object label="&lt;p style=&quot;line-height: 100%;&quot;&gt;&lt;br&gt;&lt;/p&gt;" type="inport" name="in" id="ifyeWFtGdhOIHdgQRf9h-16">
                    <mxCell style="whiteSpace=wrap;html=1;aspect=fixed;snapToPoint=1;resizable=0;metaEdit=1;points=[[0,0.5,0,0,0]];editable=1;movable=0;rotatable=1;deletable=1;locked=0;connectable=1;noLabel=0;overflow=visible;direction=east;" vertex="1" parent="ifyeWFtGdhOIHdgQRf9h-15">
                        <mxGeometry x="-4" y="10" width="10" height="10" as="geometry"/>
                    </mxCell>
                </object>
                <object label="&lt;font style=&quot;font-size: 11px;&quot;&gt;%name%&lt;/font&gt;" block="Outport" type="block" name="out2" placeholders="1" id="ifyeWFtGdhOIHdgQRf9h-17">
                    <mxCell style="ellipse;whiteSpace=wrap;html=1;fontSize=18;points=[[0.02,0.5,0,0,0]];metaEdit=1;snapToPoint=0;resizable=0;rotatable=0;allowArrows=0;container=1;collapsible=0;spacingTop=-4;movable=1;connectable=0;" vertex="1" parent="1">
                        <mxGeometry x="580" y="245" width="50" height="30" as="geometry"/>
                    </mxCell>
                </object>
                <object label="&lt;p style=&quot;line-height: 100%;&quot;&gt;&lt;br&gt;&lt;/p&gt;" type="inport" name="in" id="ifyeWFtGdhOIHdgQRf9h-18">
                    <mxCell style="whiteSpace=wrap;html=1;aspect=fixed;snapToPoint=1;resizable=0;metaEdit=1;points=[[0,0.5,0,0,0]];editable=1;movable=0;rotatable=1;deletable=1;locked=0;connectable=1;noLabel=0;overflow=visible;direction=east;" vertex="1" parent="ifyeWFtGdhOIHdgQRf9h-17">
                        <mxGeometry x="-4" y="10" width="10" height="10" as="geometry"/>
                    </mxCell>
                </object>
                <object label="&lt;p&gt;&lt;font style=&quot;font-size: 22px;&quot;&gt;*&lt;/font&gt;&lt;/p&gt;" block="Product" type="block" name="" id="ifyeWFtGdhOIHdgQRf9h-19">
                    <mxCell style="whiteSpace=wrap;html=1;aspect=fixed;fontSize=11;points=[[0,0.25,0,0,0],[0,0.75,0,0,0],[1,0.5,0,0,0]];metaEdit=1;snapToPoint=0;resizable=0;rotatable=0;allowArrows=0;container=1;collapsible=0;spacingBottom=-7;movable=1;connectable=0;" vertex="1" parent="1">
                        <mxGeometry x="330" y="160" width="40" height="40" as="geometry"/>
                    </mxCell>
                </object>
                <object label="&lt;p style=&quot;line-height: 100%;&quot;&gt;&lt;br&gt;&lt;/p&gt;" type="outport" name="out" id="ifyeWFtGdhOIHdgQRf9h-20">
                    <mxCell style="whiteSpace=wrap;html=1;aspect=fixed;snapToPoint=1;resizable=0;metaEdit=1;points=[[1,0.5,0,0,0]];editable=1;movable=0;rotatable=1;deletable=1;locked=0;connectable=1;noLabel=0;overflow=visible;fillColor=#000000;" vertex="1" parent="ifyeWFtGdhOIHdgQRf9h-19">
                        <mxGeometry x="35" y="15" width="10" height="10" as="geometry"/>
                    </mxCell>
                </object>
                <object label="&lt;p style=&quot;line-height: 100%;&quot;&gt;&lt;br&gt;&lt;/p&gt;" type="inport" name="in1" id="ifyeWFtGdhOIHdgQRf9h-21">
                    <mxCell style="whiteSpace=wrap;html=1;aspect=fixed;snapToPoint=1;resizable=0;metaEdit=1;points=[[0,0.5,0,0,0]];editable=1;movable=0;rotatable=1;deletable=1;locked=0;connectable=1;noLabel=0;overflow=visible;direction=east;" vertex="1" parent="ifyeWFtGdhOIHdgQRf9h-19">
                        <mxGeometry x="-5" y="5" width="10" height="10" as="geometry"/>
                    </mxCell>
                </object>
                <object label="&lt;p style=&quot;line-height: 100%;&quot;&gt;&lt;br&gt;&lt;/p&gt;" type="inport" name="in2" id="ifyeWFtGdhOIHdgQRf9h-22">
                    <mxCell style="whiteSpace=wrap;html=1;aspect=fixed;snapToPoint=1;resizable=0;metaEdit=1;points=[[0,0.5,0,0,0]];editable=1;movable=0;rotatable=1;deletable=1;locked=0;connectable=1;noLabel=0;overflow=visible;direction=east;" vertex="1" parent="ifyeWFtGdhOIHdgQRf9h-19">
                        <mxGeometry x="-5" y="25" width="10" height="10" as="geometry"/>
                    </mxCell>
                </object>
                <object label="&lt;p&gt;&lt;font style=&quot;font-size: 22px;&quot;&gt;*&lt;/font&gt;&lt;/p&gt;" block="Product" type="block" name="" id="ifyeWFtGdhOIHdgQRf9h-23">
                    <mxCell style="whiteSpace=wrap;html=1;aspect=fixed;fontSize=11;points=[[0,0.25,0,0,0],[0,0.75,0,0,0],[1,0.5,0,0,0]];metaEdit=1;snapToPoint=0;resizable=0;rotatable=0;allowArrows=0;container=1;collapsible=0;spacingBottom=-7;movable=1;connectable=0;" vertex="1" parent="1">
                        <mxGeometry x="330" y="230" width="40" height="40" as="geometry"/>
                    </mxCell>
                </object>
                <object label="&lt;p style=&quot;line-height: 100%;&quot;&gt;&lt;br&gt;&lt;/p&gt;" type="outport" name="out" id="ifyeWFtGdhOIHdgQRf9h-24">
                    <mxCell style="whiteSpace=wrap;html=1;aspect=fixed;snapToPoint=1;resizable=0;metaEdit=1;points=[[1,0.5,0,0,0]];editable=1;movable=0;rotatable=1;deletable=1;locked=0;connectable=1;noLabel=0;overflow=visible;fillColor=#000000;" vertex="1" parent="ifyeWFtGdhOIHdgQRf9h-23">
                        <mxGeometry x="35" y="15" width="10" height="10" as="geometry"/>
                    </mxCell>
                </object>
                <object label="&lt;p style=&quot;line-height: 100%;&quot;&gt;&lt;br&gt;&lt;/p&gt;" type="inport" name="in1" id="ifyeWFtGdhOIHdgQRf9h-25">
                    <mxCell style="whiteSpace=wrap;html=1;aspect=fixed;snapToPoint=1;resizable=0;metaEdit=1;points=[[0,0.5,0,0,0]];editable=1;movable=0;rotatable=1;deletable=1;locked=0;connectable=1;noLabel=0;overflow=visible;direction=east;" vertex="1" parent="ifyeWFtGdhOIHdgQRf9h-23">
                        <mxGeometry x="-5" y="5" width="10" height="10" as="geometry"/>
                    </mxCell>
                </object>
                <object label="&lt;p style=&quot;line-height: 100%;&quot;&gt;&lt;br&gt;&lt;/p&gt;" type="inport" name="in2" id="ifyeWFtGdhOIHdgQRf9h-26">
                    <mxCell style="whiteSpace=wrap;html=1;aspect=fixed;snapToPoint=1;resizable=0;metaEdit=1;points=[[0,0.5,0,0,0]];editable=1;movable=0;rotatable=1;deletable=1;locked=0;connectable=1;noLabel=0;overflow=visible;direction=east;" vertex="1" parent="ifyeWFtGdhOIHdgQRf9h-23">
                        <mxGeometry x="-5" y="25" width="10" height="10" as="geometry"/>
                    </mxCell>
                </object>
                <mxCell id="ifyeWFtGdhOIHdgQRf9h-27" style="edgeStyle=orthogonalEdgeStyle;html=1;exitX=1;exitY=0.5;exitDx=0;exitDy=0;exitPerimeter=0;entryX=0;entryY=0.5;entryDx=0;entryDy=0;entryPerimeter=0;" edge="1" parent="1" source="ifyeWFtGdhOIHdgQRf9h-24" target="ifyeWFtGdhOIHdgQRf9h-14">
                    <mxGeometry relative="1" as="geometry"/>
                </mxCell>
                <mxCell id="ifyeWFtGdhOIHdgQRf9h-28" style="edgeStyle=orthogonalEdgeStyle;html=1;exitX=1;exitY=0.5;exitDx=0;exitDy=0;exitPerimeter=0;entryX=0;entryY=0.5;entryDx=0;entryDy=0;entryPerimeter=0;" edge="1" parent="1" source="ifyeWFtGdhOIHdgQRf9h-20" target="ifyeWFtGdhOIHdgQRf9h-8">
                    <mxGeometry relative="1" as="geometry"/>
                </mxCell>
                <mxCell id="ifyeWFtGdhOIHdgQRf9h-29" style="edgeStyle=orthogonalEdgeStyle;html=1;exitX=1;exitY=0.5;exitDx=0;exitDy=0;exitPerimeter=0;entryX=0;entryY=0.5;entryDx=0;entryDy=0;entryPerimeter=0;" edge="1" parent="1" source="ifyeWFtGdhOIHdgQRf9h-2" target="ifyeWFtGdhOIHdgQRf9h-7">
                    <mxGeometry relative="1" as="geometry"/>
                </mxCell>
                <mxCell id="ifyeWFtGdhOIHdgQRf9h-30" style="edgeStyle=orthogonalEdgeStyle;html=1;exitX=1;exitY=0.5;exitDx=0;exitDy=0;exitPerimeter=0;entryX=0;entryY=0.5;entryDx=0;entryDy=0;entryPerimeter=0;" edge="1" parent="1" source="ifyeWFtGdhOIHdgQRf9h-4" target="ifyeWFtGdhOIHdgQRf9h-21">
                    <mxGeometry relative="1" as="geometry"/>
                </mxCell>
                <mxCell id="ifyeWFtGdhOIHdgQRf9h-31" style="edgeStyle=orthogonalEdgeStyle;html=1;exitX=1;exitY=0.5;exitDx=0;exitDy=0;exitPerimeter=0;entryX=0;entryY=0.5;entryDx=0;entryDy=0;entryPerimeter=0;" edge="1" parent="1" source="ifyeWFtGdhOIHdgQRf9h-4" target="ifyeWFtGdhOIHdgQRf9h-25">
                    <mxGeometry relative="1" as="geometry"/>
                </mxCell>
                <object label="&lt;font style=&quot;font-size: 11px;&quot;&gt;Constant&lt;/font&gt;" block="Constant" value="I_ENG2Fr_ENG_mount" type="block" name="" id="ifyeWFtGdhOIHdgQRf9h-32">
                    <mxCell style="whiteSpace=wrap;html=1;fontSize=11;points=[[1,0.5,0,0,0]];metaEdit=1;snapToPoint=0;resizable=0;rotatable=0;allowArrows=0;container=1;resizeWidth=0;connectable=0;collapsible=0;movable=1;" vertex="1" parent="1">
                        <mxGeometry x="140" y="120" width="70" height="40" as="geometry"/>
                    </mxCell>
                </object>
                <object label="&lt;p style=&quot;line-height: 100%;&quot;&gt;&lt;br&gt;&lt;/p&gt;" type="outport" name="out" id="ifyeWFtGdhOIHdgQRf9h-33">
                    <mxCell style="whiteSpace=wrap;html=1;aspect=fixed;snapToPoint=1;resizable=0;metaEdit=1;points=[[1,0.5,0,0,0]];editable=1;movable=0;rotatable=1;deletable=1;locked=0;connectable=1;noLabel=0;overflow=visible;fillColor=#000000;" vertex="1" parent="ifyeWFtGdhOIHdgQRf9h-32">
                        <mxGeometry x="65.25" y="15" width="10" height="10" as="geometry"/>
                    </mxCell>
                </object>
                <object label="&lt;font style=&quot;font-size: 11px;&quot;&gt;Constant&lt;/font&gt;" block="Constant" value="C" type="block" name="" id="ifyeWFtGdhOIHdgQRf9h-34">
                    <mxCell style="whiteSpace=wrap;html=1;fontSize=11;points=[[1,0.5,0,0,0]];metaEdit=1;snapToPoint=0;resizable=0;rotatable=0;allowArrows=0;container=1;resizeWidth=0;connectable=0;collapsible=0;movable=1;" vertex="1" parent="1">
                        <mxGeometry x="140" y="275" width="70" height="40" as="geometry"/>
                    </mxCell>
                </object>
                <object label="&lt;p style=&quot;line-height: 100%;&quot;&gt;&lt;br&gt;&lt;/p&gt;" type="outport" name="out" id="ifyeWFtGdhOIHdgQRf9h-35">
                    <mxCell style="whiteSpace=wrap;html=1;aspect=fixed;snapToPoint=1;resizable=0;metaEdit=1;points=[[1,0.5,0,0,0]];editable=1;movable=0;rotatable=1;deletable=1;locked=0;connectable=1;noLabel=0;overflow=visible;fillColor=#000000;" vertex="1" parent="ifyeWFtGdhOIHdgQRf9h-34">
                        <mxGeometry x="65.25" y="15" width="10" height="10" as="geometry"/>
                    </mxCell>
                </object>
                <mxCell id="ifyeWFtGdhOIHdgQRf9h-36" style="edgeStyle=orthogonalEdgeStyle;html=1;exitX=1;exitY=0.5;exitDx=0;exitDy=0;exitPerimeter=0;entryX=0;entryY=0.5;entryDx=0;entryDy=0;entryPerimeter=0;" edge="1" parent="1" source="ifyeWFtGdhOIHdgQRf9h-33" target="ifyeWFtGdhOIHdgQRf9h-22">
                    <mxGeometry relative="1" as="geometry"/>
                </mxCell>
                <mxCell id="ifyeWFtGdhOIHdgQRf9h-37" style="edgeStyle=orthogonalEdgeStyle;html=1;exitX=1;exitY=0.5;exitDx=0;exitDy=0;exitPerimeter=0;entryX=0;entryY=0.5;entryDx=0;entryDy=0;entryPerimeter=0;" edge="1" parent="1" source="ifyeWFtGdhOIHdgQRf9h-35" target="ifyeWFtGdhOIHdgQRf9h-26">
                    <mxGeometry relative="1" as="geometry"/>
                </mxCell>
                <mxCell id="ifyeWFtGdhOIHdgQRf9h-38" style="edgeStyle=orthogonalEdgeStyle;html=1;exitX=1;exitY=0.5;exitDx=0;exitDy=0;exitPerimeter=0;entryX=0;entryY=0.5;entryDx=0;entryDy=0;entryPerimeter=0;" edge="1" parent="1" source="ifyeWFtGdhOIHdgQRf9h-2" target="ifyeWFtGdhOIHdgQRf9h-13">
                    <mxGeometry relative="1" as="geometry"/>
                </mxCell>
                <mxCell id="ifyeWFtGdhOIHdgQRf9h-39" style="edgeStyle=orthogonalEdgeStyle;html=1;exitX=1;exitY=0.5;exitDx=0;exitDy=0;exitPerimeter=0;entryX=0;entryY=0.5;entryDx=0;entryDy=0;entryPerimeter=0;" edge="1" parent="1" source="ifyeWFtGdhOIHdgQRf9h-6" target="ifyeWFtGdhOIHdgQRf9h-16">
                    <mxGeometry relative="1" as="geometry"/>
                </mxCell>
                <mxCell id="ifyeWFtGdhOIHdgQRf9h-40" style="edgeStyle=orthogonalEdgeStyle;html=1;exitX=1;exitY=0.5;exitDx=0;exitDy=0;exitPerimeter=0;entryX=0;entryY=0.5;entryDx=0;entryDy=0;entryPerimeter=0;" edge="1" parent="1" source="ifyeWFtGdhOIHdgQRf9h-12" target="ifyeWFtGdhOIHdgQRf9h-18">
                    <mxGeometry relative="1" as="geometry"/>
                </mxCell>
                <mxCell id="UESOWfNuKFRqJbi2eAaI-1" value="v_ENG_mps" style="text;strokeColor=none;align=center;fillColor=none;html=1;verticalAlign=middle;whiteSpace=wrap;rounded=0;resizable=0;connectable=0;allowArrows=0;" vertex="1" parent="1">
                    <mxGeometry x="75" y="80" width="60" height="30" as="geometry"/>
                </mxCell>
                <mxCell id="UESOWfNuKFRqJbi2eAaI-2" value="omg_ENG_pitch_rate_radps" style="text;strokeColor=none;align=center;fillColor=none;html=1;verticalAlign=middle;whiteSpace=wrap;rounded=0;resizable=0;connectable=0;allowArrows=0;" vertex="1" parent="1">
                    <mxGeometry x="75" y="240" width="60" height="30" as="geometry"/>
                </mxCell>
                <mxCell id="UESOWfNuKFRqJbi2eAaI-3" value="v_ENG2ENG_MNT_F_mps" style="text;strokeColor=none;align=center;fillColor=none;html=1;verticalAlign=middle;whiteSpace=wrap;rounded=0;resizable=0;connectable=0;allowArrows=0;" vertex="1" parent="1">
                    <mxGeometry x="575" y="180" width="60" height="30" as="geometry"/>
                </mxCell>
                <mxCell id="UESOWfNuKFRqJbi2eAaI-4" value="v_ENG2ENG_MNT_R_mps" style="text;strokeColor=none;align=center;fillColor=none;html=1;verticalAlign=middle;whiteSpace=wrap;rounded=0;resizable=0;connectable=0;allowArrows=0;" vertex="1" parent="1">
                    <mxGeometry x="580" y="280" width="60" height="30" as="geometry"/>
                </mxCell>
            </root>
        </mxGraphModel>
    </diagram>
    <diagram id="MNqwuTK46DPc3BIWin2E" name="ENG_PNT">
        <mxGraphModel dx="541" dy="551" grid="1" gridSize="10" guides="1" tooltips="1" connect="1" arrows="0" fold="1" page="1" pageScale="1" pageWidth="827" pageHeight="1169" math="0" shadow="0">
            <root>
                <mxCell id="0"/>
                <mxCell id="1" parent="0"/>
                <object label="&lt;font style=&quot;font-size: 11px;&quot;&gt;%name%&lt;/font&gt;" block="Inport" type="block" name="in1" placeholders="1" id="dASzUDy8KMuGXfblBCHi-1">
                    <mxCell style="ellipse;whiteSpace=wrap;html=1;fontSize=18;points=[[1,0.5,0,0,0]];metaEdit=1;snapToPoint=0;resizable=0;rotatable=0;allowArrows=0;container=1;collapsible=0;spacingTop=-5;movable=1;connectable=0;" vertex="1" parent="1">
                        <mxGeometry x="79.99999999999989" y="120" width="50" height="30" as="geometry"/>
                    </mxCell>
                </object>
                <object label="&lt;p style=&quot;line-height: 100%;&quot;&gt;&lt;br&gt;&lt;/p&gt;" type="outport" name="out" id="dASzUDy8KMuGXfblBCHi-2">
                    <mxCell style="whiteSpace=wrap;html=1;aspect=fixed;snapToPoint=1;resizable=0;metaEdit=1;points=[[1,0.5,0,0,0]];editable=1;movable=0;rotatable=1;deletable=1;locked=0;connectable=1;noLabel=0;overflow=visible;fillColor=#000000;" vertex="1" parent="dASzUDy8KMuGXfblBCHi-1">
                        <mxGeometry x="45" y="10" width="10" height="10" as="geometry"/>
                    </mxCell>
                </object>
                <object label="&lt;font style=&quot;font-size: 11px;&quot;&gt;%name%&lt;/font&gt;" block="Inport" type="block" name="in2" placeholders="1" id="dASzUDy8KMuGXfblBCHi-3">
                    <mxCell style="ellipse;whiteSpace=wrap;html=1;fontSize=18;points=[[1,0.5,0,0,0]];metaEdit=1;snapToPoint=0;resizable=0;rotatable=0;allowArrows=0;container=1;collapsible=0;spacingTop=-5;movable=1;connectable=0;" vertex="1" parent="1">
                        <mxGeometry x="79.99999999999989" y="200" width="50" height="30" as="geometry"/>
                    </mxCell>
                </object>
                <object label="&lt;p style=&quot;line-height: 100%;&quot;&gt;&lt;br&gt;&lt;/p&gt;" type="outport" name="out" id="dASzUDy8KMuGXfblBCHi-4">
                    <mxCell style="whiteSpace=wrap;html=1;aspect=fixed;snapToPoint=1;resizable=0;metaEdit=1;points=[[1,0.5,0,0,0]];editable=1;movable=0;rotatable=1;deletable=1;locked=0;connectable=1;noLabel=0;overflow=visible;fillColor=#000000;" vertex="1" parent="dASzUDy8KMuGXfblBCHi-3">
                        <mxGeometry x="45" y="10" width="10" height="10" as="geometry"/>
                    </mxCell>
                </object>
                <object label="%block%" block="pitch_rate" type="block" name="" placeholders="1" id="dASzUDy8KMuGXfblBCHi-8">
                    <mxCell style="rounded=0;whiteSpace=wrap;html=1;fontSize=11;points=[[0,0.5,0,0,0],[1,0.5,0,0,0]];metaEdit=1;snapToPoint=0;resizable=1;rotatable=0;allowArrows=0;container=1;resizeHeight=0;connectable=0;collapsible=0;movable=1;" vertex="1" parent="1">
                        <mxGeometry x="200" y="230" width="90" height="60" as="geometry"/>
                    </mxCell>
                </object>
                <object label="&lt;p style=&quot;line-height: 100%;&quot;&gt;&lt;br&gt;&lt;/p&gt;" type="inport" name="in1" id="dASzUDy8KMuGXfblBCHi-9">
                    <mxCell style="whiteSpace=wrap;html=1;aspect=fixed;snapToPoint=1;resizable=0;metaEdit=1;points=[[0,0.5,0,0,0]];editable=1;movable=1;rotatable=1;deletable=1;locked=0;connectable=1;noLabel=0;overflow=visible;direction=east;" vertex="1" parent="dASzUDy8KMuGXfblBCHi-8">
                        <mxGeometry x="-5.42857142857143" y="14" width="10" height="10" as="geometry"/>
                    </mxCell>
                </object>
                <object label="&lt;p style=&quot;line-height: 100%;&quot;&gt;&lt;br&gt;&lt;/p&gt;" type="outport" name="out1" id="dASzUDy8KMuGXfblBCHi-10">
                    <mxCell style="whiteSpace=wrap;html=1;aspect=fixed;snapToPoint=1;resizable=0;metaEdit=1;points=[[1,0.5,0,0,0]];editable=1;movable=1;rotatable=1;deletable=1;locked=0;connectable=1;noLabel=0;overflow=visible;fillColor=#000000;" vertex="1" parent="dASzUDy8KMuGXfblBCHi-8">
                        <mxGeometry x="84.57142857142858" y="25" width="10" height="10" as="geometry"/>
                    </mxCell>
                </object>
                <object label="&lt;p style=&quot;line-height: 100%;&quot;&gt;&lt;br&gt;&lt;/p&gt;" type="inport" name="in2" id="dASzUDy8KMuGXfblBCHi-18">
                    <mxCell style="whiteSpace=wrap;html=1;aspect=fixed;snapToPoint=1;resizable=0;metaEdit=1;points=[[0,0.5,0,0,0]];editable=1;movable=1;rotatable=1;deletable=1;locked=0;connectable=1;noLabel=0;overflow=visible;direction=east;" vertex="1" parent="dASzUDy8KMuGXfblBCHi-8">
                        <mxGeometry x="-5.4300000000001205" y="37.00000000000006" width="10" height="10" as="geometry"/>
                    </mxCell>
                </object>
                <object label="&lt;font style=&quot;font-size: 11px;&quot;&gt;%name%&lt;/font&gt;" block="Outport" type="block" name="out2" placeholders="1" id="dASzUDy8KMuGXfblBCHi-14">
                    <mxCell style="ellipse;whiteSpace=wrap;html=1;fontSize=18;points=[[0.02,0.5,0,0,0]];metaEdit=1;snapToPoint=0;resizable=0;rotatable=0;allowArrows=0;container=1;collapsible=0;spacingTop=-4;movable=1;connectable=0;" vertex="1" parent="1">
                        <mxGeometry x="540" y="245" width="50" height="30" as="geometry"/>
                    </mxCell>
                </object>
                <object label="&lt;p style=&quot;line-height: 100%;&quot;&gt;&lt;br&gt;&lt;/p&gt;" type="inport" name="in" id="dASzUDy8KMuGXfblBCHi-15">
                    <mxCell style="whiteSpace=wrap;html=1;aspect=fixed;snapToPoint=1;resizable=0;metaEdit=1;points=[[0,0.5,0,0,0]];editable=1;movable=0;rotatable=1;deletable=1;locked=0;connectable=1;noLabel=0;overflow=visible;direction=east;" vertex="1" parent="dASzUDy8KMuGXfblBCHi-14">
                        <mxGeometry x="-4" y="10" width="10" height="10" as="geometry"/>
                    </mxCell>
                </object>
                <object label="&lt;font style=&quot;font-size: 11px;&quot;&gt;%name%&lt;/font&gt;" block="Outport" type="block" name="out1" placeholders="1" id="dASzUDy8KMuGXfblBCHi-16">
                    <mxCell style="ellipse;whiteSpace=wrap;html=1;fontSize=18;points=[[0.02,0.5,0,0,0]];metaEdit=1;snapToPoint=0;resizable=0;rotatable=0;allowArrows=0;container=1;collapsible=0;spacingTop=-4;movable=1;connectable=0;" vertex="1" parent="1">
                        <mxGeometry x="540" y="165" width="50" height="30" as="geometry"/>
                    </mxCell>
                </object>
                <object label="&lt;p style=&quot;line-height: 100%;&quot;&gt;&lt;br&gt;&lt;/p&gt;" type="inport" name="in" id="dASzUDy8KMuGXfblBCHi-17">
                    <mxCell style="whiteSpace=wrap;html=1;aspect=fixed;snapToPoint=1;resizable=0;metaEdit=1;points=[[0,0.5,0,0,0]];editable=1;movable=0;rotatable=1;deletable=1;locked=0;connectable=1;noLabel=0;overflow=visible;direction=east;" vertex="1" parent="dASzUDy8KMuGXfblBCHi-16">
                        <mxGeometry x="-4" y="10" width="10" height="10" as="geometry"/>
                    </mxCell>
                </object>
                <object label="%block%" block="v_z_carbody" type="block" name="" placeholders="1" id="dASzUDy8KMuGXfblBCHi-21">
                    <mxCell style="rounded=0;whiteSpace=wrap;html=1;fontSize=11;points=[[0,0.5,0,0,0],[1,0.5,0,0,0]];metaEdit=1;snapToPoint=0;resizable=1;rotatable=0;allowArrows=0;container=1;resizeHeight=0;connectable=0;collapsible=0;movable=1;" vertex="1" parent="1">
                        <mxGeometry x="200" y="100" width="90" height="60" as="geometry"/>
                    </mxCell>
                </object>
                <object label="&lt;p style=&quot;line-height: 100%;&quot;&gt;&lt;br&gt;&lt;/p&gt;" type="inport" name="in1" id="dASzUDy8KMuGXfblBCHi-22">
                    <mxCell style="whiteSpace=wrap;html=1;aspect=fixed;snapToPoint=1;resizable=0;metaEdit=1;points=[[0,0.5,0,0,0]];editable=1;movable=1;rotatable=1;deletable=1;locked=0;connectable=1;noLabel=0;overflow=visible;direction=east;" vertex="1" parent="dASzUDy8KMuGXfblBCHi-21">
                        <mxGeometry x="-5.42857142857143" y="14" width="10" height="10" as="geometry"/>
                    </mxCell>
                </object>
                <object label="&lt;p style=&quot;line-height: 100%;&quot;&gt;&lt;br&gt;&lt;/p&gt;" type="outport" name="out1" id="dASzUDy8KMuGXfblBCHi-23">
                    <mxCell style="whiteSpace=wrap;html=1;aspect=fixed;snapToPoint=1;resizable=0;metaEdit=1;points=[[1,0.5,0,0,0]];editable=1;movable=1;rotatable=1;deletable=1;locked=0;connectable=1;noLabel=0;overflow=visible;fillColor=#000000;" vertex="1" parent="dASzUDy8KMuGXfblBCHi-21">
                        <mxGeometry x="84.57142857142858" y="25" width="10" height="10" as="geometry"/>
                    </mxCell>
                </object>
                <object label="&lt;p style=&quot;line-height: 100%;&quot;&gt;&lt;br&gt;&lt;/p&gt;" type="inport" name="in2" id="dASzUDy8KMuGXfblBCHi-24">
                    <mxCell style="whiteSpace=wrap;html=1;aspect=fixed;snapToPoint=1;resizable=0;metaEdit=1;points=[[0,0.5,0,0,0]];editable=1;movable=1;rotatable=1;deletable=1;locked=0;connectable=1;noLabel=0;overflow=visible;direction=east;" vertex="1" parent="dASzUDy8KMuGXfblBCHi-21">
                        <mxGeometry x="-5.4300000000001205" y="37.00000000000006" width="10" height="10" as="geometry"/>
                    </mxCell>
                </object>
                <object label="%block%" block="z_velocity" type="block" name="" placeholders="1" id="dASzUDy8KMuGXfblBCHi-25">
                    <mxCell style="rounded=0;whiteSpace=wrap;html=1;fontSize=11;points=[[0,0.5,0,0,0],[1,0.5,0,0,0]];metaEdit=1;snapToPoint=0;resizable=1;rotatable=0;allowArrows=0;container=1;resizeHeight=0;connectable=0;collapsible=0;movable=1;" vertex="1" parent="1">
                        <mxGeometry x="350" y="170" width="90" height="60" as="geometry"/>
                    </mxCell>
                </object>
                <object label="&lt;p style=&quot;line-height: 100%;&quot;&gt;&lt;br&gt;&lt;/p&gt;" type="inport" name="in1" id="dASzUDy8KMuGXfblBCHi-26">
                    <mxCell style="whiteSpace=wrap;html=1;aspect=fixed;snapToPoint=1;resizable=0;metaEdit=1;points=[[0,0.5,0,0,0]];editable=1;movable=1;rotatable=1;deletable=1;locked=0;connectable=1;noLabel=0;overflow=visible;direction=east;" vertex="1" parent="dASzUDy8KMuGXfblBCHi-25">
                        <mxGeometry x="-5.42857142857143" y="14" width="10" height="10" as="geometry"/>
                    </mxCell>
                </object>
                <object label="&lt;p style=&quot;line-height: 100%;&quot;&gt;&lt;br&gt;&lt;/p&gt;" type="outport" name="out1" id="dASzUDy8KMuGXfblBCHi-27">
                    <mxCell style="whiteSpace=wrap;html=1;aspect=fixed;snapToPoint=1;resizable=0;metaEdit=1;points=[[1,0.5,0,0,0]];editable=1;movable=1;rotatable=1;deletable=1;locked=0;connectable=1;noLabel=0;overflow=visible;fillColor=#000000;" vertex="1" parent="dASzUDy8KMuGXfblBCHi-25">
                        <mxGeometry x="84.57142857142858" y="12" width="10" height="10" as="geometry"/>
                    </mxCell>
                </object>
                <object label="&lt;p style=&quot;line-height: 100%;&quot;&gt;&lt;br&gt;&lt;/p&gt;" type="inport" name="in2" id="dASzUDy8KMuGXfblBCHi-28">
                    <mxCell style="whiteSpace=wrap;html=1;aspect=fixed;snapToPoint=1;resizable=0;metaEdit=1;points=[[0,0.5,0,0,0]];editable=1;movable=1;rotatable=1;deletable=1;locked=0;connectable=1;noLabel=0;overflow=visible;direction=east;" vertex="1" parent="dASzUDy8KMuGXfblBCHi-25">
                        <mxGeometry x="-5.4300000000001205" y="37.00000000000006" width="10" height="10" as="geometry"/>
                    </mxCell>
                </object>
                <object label="&lt;p style=&quot;line-height: 100%;&quot;&gt;&lt;br&gt;&lt;/p&gt;" type="outport" name="out2" id="dASzUDy8KMuGXfblBCHi-29">
                    <mxCell style="whiteSpace=wrap;html=1;aspect=fixed;snapToPoint=1;resizable=0;metaEdit=1;points=[[1,0.5,0,0,0]];editable=1;movable=1;rotatable=1;deletable=1;locked=0;connectable=1;noLabel=0;overflow=visible;fillColor=#000000;" vertex="1" parent="dASzUDy8KMuGXfblBCHi-25">
                        <mxGeometry x="84.00000000000011" y="39.00000000000006" width="10" height="10" as="geometry"/>
                    </mxCell>
                </object>
                <mxCell id="dASzUDy8KMuGXfblBCHi-31" style="edgeStyle=orthogonalEdgeStyle;html=1;exitX=1;exitY=0.5;exitDx=0;exitDy=0;exitPerimeter=0;entryX=0;entryY=0.5;entryDx=0;entryDy=0;entryPerimeter=0;" edge="1" parent="1" source="dASzUDy8KMuGXfblBCHi-2" target="dASzUDy8KMuGXfblBCHi-22">
                    <mxGeometry relative="1" as="geometry"/>
                </mxCell>
                <mxCell id="dASzUDy8KMuGXfblBCHi-32" style="edgeStyle=orthogonalEdgeStyle;html=1;exitX=1;exitY=0.5;exitDx=0;exitDy=0;exitPerimeter=0;entryX=0;entryY=0.5;entryDx=0;entryDy=0;entryPerimeter=0;" edge="1" parent="1" source="dASzUDy8KMuGXfblBCHi-2" target="dASzUDy8KMuGXfblBCHi-9">
                    <mxGeometry relative="1" as="geometry"/>
                </mxCell>
                <mxCell id="dASzUDy8KMuGXfblBCHi-33" style="edgeStyle=orthogonalEdgeStyle;html=1;exitX=1;exitY=0.5;exitDx=0;exitDy=0;exitPerimeter=0;entryX=0;entryY=0.5;entryDx=0;entryDy=0;entryPerimeter=0;" edge="1" parent="1" source="dASzUDy8KMuGXfblBCHi-4" target="dASzUDy8KMuGXfblBCHi-24">
                    <mxGeometry relative="1" as="geometry"/>
                </mxCell>
                <mxCell id="dASzUDy8KMuGXfblBCHi-34" style="edgeStyle=orthogonalEdgeStyle;html=1;exitX=1;exitY=0.5;exitDx=0;exitDy=0;exitPerimeter=0;entryX=0;entryY=0.5;entryDx=0;entryDy=0;entryPerimeter=0;" edge="1" parent="1" source="dASzUDy8KMuGXfblBCHi-4" target="dASzUDy8KMuGXfblBCHi-18">
                    <mxGeometry relative="1" as="geometry"/>
                </mxCell>
                <mxCell id="dASzUDy8KMuGXfblBCHi-35" style="edgeStyle=orthogonalEdgeStyle;html=1;exitX=1;exitY=0.5;exitDx=0;exitDy=0;exitPerimeter=0;entryX=0;entryY=0.5;entryDx=0;entryDy=0;entryPerimeter=0;" edge="1" parent="1" source="dASzUDy8KMuGXfblBCHi-23" target="dASzUDy8KMuGXfblBCHi-26">
                    <mxGeometry relative="1" as="geometry"/>
                </mxCell>
                <mxCell id="dASzUDy8KMuGXfblBCHi-36" style="edgeStyle=orthogonalEdgeStyle;html=1;exitX=1;exitY=0.5;exitDx=0;exitDy=0;exitPerimeter=0;entryX=0;entryY=0.5;entryDx=0;entryDy=0;entryPerimeter=0;" edge="1" parent="1" source="dASzUDy8KMuGXfblBCHi-10" target="dASzUDy8KMuGXfblBCHi-28">
                    <mxGeometry relative="1" as="geometry"/>
                </mxCell>
                <mxCell id="dASzUDy8KMuGXfblBCHi-37" style="edgeStyle=orthogonalEdgeStyle;html=1;exitX=1;exitY=0.5;exitDx=0;exitDy=0;exitPerimeter=0;entryX=0;entryY=0.5;entryDx=0;entryDy=0;entryPerimeter=0;" edge="1" parent="1" source="dASzUDy8KMuGXfblBCHi-27" target="dASzUDy8KMuGXfblBCHi-17">
                    <mxGeometry relative="1" as="geometry"/>
                </mxCell>
                <mxCell id="dASzUDy8KMuGXfblBCHi-38" style="edgeStyle=orthogonalEdgeStyle;html=1;exitX=1;exitY=0.5;exitDx=0;exitDy=0;exitPerimeter=0;entryX=0;entryY=0.5;entryDx=0;entryDy=0;entryPerimeter=0;" edge="1" parent="1" source="dASzUDy8KMuGXfblBCHi-29" target="dASzUDy8KMuGXfblBCHi-15">
                    <mxGeometry relative="1" as="geometry"/>
                </mxCell>
            </root>
        </mxGraphModel>
    </diagram>
</mxfile>